<svg xmlns="http://www.w3.org/2000/svg" width="295" height="236" viewBox="0 0 295 236" version="1.1"><path d="M 194.949 27.309 C 177.102 38.478, 160.574 48.842, 158.220 50.340 L 153.941 53.062 184.970 114.409 C 202.037 148.150, 216 176.486, 216 177.378 C 216 179.184, 217.538 179.556, 218.509 177.985 C 219.500 176.382, 223.354 154.673, 233.022 96.231 C 241.604 44.356, 241.999 41.289, 241.967 26.731 C 241.926 8.166, 241.384 7, 232.789 7 C 227.510 7, 226.724 7.422, 194.949 27.309" stroke="none" fill="#cd1f5d" fill-rule="evenodd"/><path d="M 146.478 63.250 C 139.706 84.669, 133.773 118.013, 129.493 158.701 C 127.023 182.193, 124 218.752, 124 225.146 L 124 231 129.154 231 C 134.596 231, 136.029 230.290, 190 200.862 C 207.014 191.585, 207.199 191.456, 209.346 187.300 C 212.748 180.716, 212.532 180.167, 182.917 120.285 C 167.471 89.053, 153.921 61.587, 152.807 59.250 C 151.692 56.913, 150.399 55, 149.933 55 C 149.468 55, 147.913 58.712, 146.478 63.250" stroke="none" fill="#146cb4" fill-rule="evenodd"/><path d="M 77.500 27.641 C 57.150 37.852, 39.666 46.946, 38.648 47.851 C 35.608 50.550, 34 54.614, 34 59.601 C 34 63.700, 36.060 68.337, 50.130 95.900 C 59.001 113.280, 72.332 139.425, 79.753 154 C 108.834 211.117, 117.257 227, 118.468 227 C 119.359 227, 119.929 223.859, 120.419 216.250 C 124.748 148.944, 133.642 89.298, 144.166 57 L 147.262 47.499 139.236 31.500 C 131.079 15.238, 128.707 11.969, 123.685 10.067 C 117.688 7.794, 115.059 8.795, 77.500 27.641" stroke="none" fill="#fcdc04" fill-rule="evenodd"/></svg>