<?xml version="1.0" standalone="no"?>
<!DOCTYPE svg PUBLIC "-//W3C//DTD SVG 1.1//EN" "http://www.w3.org/Graphics/SVG/1.1/DTD/svg11.dtd" >
<svg xmlns="http://www.w3.org/2000/svg">
<metadata>Generated by IcoMoon</metadata>
<defs>
<font id="icomoon" horiz-adv-x="1024">
<font-face units-per-em="1024" ascent="960" descent="-64" />
<missing-glyph horiz-adv-x="1024" />
<glyph unicode="&#x20;" horiz-adv-x="512" d="" />
<glyph unicode="&#xe900;" glyph-name="bdv-icon-3dtome-l" d="M1009.664 594.432c0 0 0 0 0 0-10.24 16.384-24.576 30.72-40.96 40.96-12.288 6.144-28.672 2.048-34.816-10.24s-2.048-28.672 10.24-34.816c2.048 0 2.048-2.048 4.096-2.048l-165.888-96.256c0 2.048 0 4.096 0 6.144v184.32c0 2.048 0 2.048 0 4.096 2.048 0 4.096-2.048 4.096-2.048 12.288-8.192 28.672-2.048 34.816 10.24s2.048 28.672-10.24 34.816c-14.336 8.192-30.72 12.288-49.152 14.336-10.24 14.336-22.528 26.624-36.864 36.864l-157.696 92.16c-34.816 20.48-77.824 20.48-110.592 0l-157.696-92.16c-14.336-8.192-28.672-20.48-36.864-36.864-16.384-2.048-32.768-6.144-49.152-14.336l-157.696-92.16c-16.384-10.24-30.72-24.576-40.96-40.96 0 0 0 0 0 0-10.24-16.384-14.336-36.864-14.336-57.344v-182.272c0-20.48 6.144-38.912 14.336-57.344 10.24-16.384 24.576-30.72 40.96-40.96 12.288-6.144 28.672-2.048 34.816 10.24s2.048 28.672-10.24 34.816c-8.192 6.144-16.384 12.288-22.528 22.528-6.144 8.192-8.192 20.48-8.192 30.72v182.272c0 2.048 0 4.096 0 4.096l190.464-110.592v-223.232c-2.048 0-2.048 2.048-4.096 2.048-12.288 8.192-28.672 2.048-34.816-10.24s-2.048-28.672 10.24-34.816c14.336-8.192 32.768-14.336 49.152-14.336 10.24-14.336 22.528-26.624 36.864-34.816l157.696-92.16c16.384-10.24 36.864-14.336 55.296-14.336s38.912 6.144 55.296 14.336l157.696 92.16c14.336 8.192 26.624 20.48 36.864 34.816 16.384 2.048 34.816 6.144 49.152 14.336l157.696 92.16c16.384 10.24 30.72 24.576 40.96 40.96s14.336 36.864 14.336 57.344v182.272c2.048 18.432-2.048 38.912-12.288 55.296zM731.136 680.448v-184.32c0-2.048 0-2.048 0-4.096-2.048 0-2.048 2.048-4.096 2.048l-157.696 92.16c-2.048 0-2.048 2.048-4.096 2.048 2.048 0 2.048 2.048 4.096 2.048l157.696 92.16c2.048 0 2.048 2.048 4.096 2.048 0-2.048 0-2.048 0-4.096zM299.008 496.128v184.32c0 2.048 0 2.048 0 4.096 2.048 0 2.048-2.048 4.096-2.048l157.696-92.16c2.048 0 2.048-2.048 4.096-2.048-2.048 0-2.048-2.048-4.096-2.048l-157.696-92.16c-2.048 0-2.048-2.048-4.096-2.048 0 2.048 0 4.096 0 4.096zM489.472 539.136v-182.272c0-2.048 0-2.048 0-4.096l-163.84 96.256 163.84 96.256c0-4.096 0-6.144 0-6.144zM540.672 354.816v182.272c0 2.048 0 4.096 0 4.096l163.84-96.256-163.84-96.256c0 4.096 0 6.144 0 6.144zM303.104 211.456c-2.048 0-2.048-2.048-4.096-2.048 0 2.048 0 4.096 0 6.144v182.272c0 2.048 0 2.048 0 4.096 2.048-2.048 2.048-2.048 4.096-2.048l157.696-92.16c2.048 0 2.048-2.048 4.096-2.048-2.048-2.048-2.048-2.048-4.096-4.096zM569.344 307.712l157.696 92.16c2.048 0 2.048 2.048 4.096 2.048 0-2.048 0-2.048 0-4.096v-182.272c0-2.048 0-4.096 0-6.144-2.048 0-2.048 2.048-4.096 2.048l-157.696 92.16c-2.048 0-2.048 2.048-4.096 4.096 2.048-2.048 4.096 0 4.096 0zM327.68 733.696l157.696 92.16c18.432 10.24 40.96 10.24 59.392 0l157.696-92.16c2.048 0 2.048-2.048 4.096-2.048l-190.464-110.592-190.464 110.592c0 0 2.048 0 2.048 2.048zM241.664 682.496c2.048 0 2.048 2.048 4.096 2.048 0-2.048 0-2.048 0-4.096v-184.32c0-2.048 0-4.096 0-6.144l-165.888 96.256c2.048 0 2.048 2.048 4.096 2.048zM327.68 162.304c-2.048 0-2.048 2.048-4.096 2.048 0 0 2.048 2.048 4.096 2.048l157.696 92.16c2.048 2.048 2.048 2.048 4.096 2.048v-192.512c-2.048 0-2.048 2.048-4.096 2.048zM544.768 70.144c-2.048 0-2.048-2.048-4.096-2.048v192.512c2.048 0 2.048-2.048 4.096-2.048l157.696-92.16c2.048 0 2.048-2.048 4.096-2.048 0 0-2.048-2.048-4.096-2.048zM972.8 354.816c0-10.24-2.048-20.48-8.192-30.72-6.144-8.192-12.288-16.384-22.528-22.528l-157.696-92.16c-2.048 0-2.048-2.048-4.096-2.048v223.232l190.464 110.592c0-2.048 0-2.048 0-4.096zM878.592 627.2c16.384 0 28.672 14.336 28.672 30.72s-12.288 30.72-28.672 30.72c-16.384 0-30.72-14.336-30.72-30.72s14.336-30.72 30.72-30.72zM147.456 256.512c-16.384 0-30.72-14.336-30.72-30.72s14.336-30.72 30.72-30.72c16.384 0 28.672 14.336 28.672 30.72 2.048 18.432-12.288 30.72-28.672 30.72z" />
<glyph unicode="&#xe901;" glyph-name="bdv-icon-3dtome-m" d="M993.557 588.454c0 0 0 0 0 0-11.070 16.605-24.908 30.443-41.514 41.514-11.070 8.303-27.676 2.768-35.978-8.303s-2.768-27.676 8.303-35.978c0 0 2.768-2.768 2.768-2.768l-163.286-96.865c0 2.768 0 2.768 0 5.535v182.659c0 2.768 0 2.768 0 5.535 2.768 0 2.768-2.768 5.535-2.768 11.070-8.303 27.676-2.768 35.978 8.303s2.768 27.676-8.303 35.978c-13.838 8.303-30.443 13.838-47.049 13.838-8.303 13.838-22.141 27.676-35.978 35.978l-154.984 91.33c-33.211 19.373-77.492 19.373-110.703 0l-154.984-91.33c-13.838-8.303-27.676-22.141-35.978-35.978-16.605 0-33.211-5.535-47.049-13.838l-154.984-91.33c-16.605-11.070-30.443-24.908-41.514-41.514 0 0 0 0 0 0-8.303-16.605-13.838-35.978-13.838-55.351v-179.892c0-19.373 5.535-38.746 13.838-55.351 11.070-16.605 24.908-30.443 41.514-41.514 11.070-8.303 27.676-2.768 35.978 8.303s2.768 27.676-8.303 35.978c-8.303 5.535-16.605 13.838-22.141 22.141s-8.303 19.373-8.303 30.443v179.892c0 2.768 0 2.768 0 5.535l188.195-110.703v-221.405c0 0-2.768 2.768-2.768 2.768-11.070 8.303-27.676 2.768-35.978-8.303s-2.768-27.676 8.303-35.978c13.838-8.303 30.443-13.838 49.816-13.838 8.303-13.838 22.141-24.908 35.978-33.211l154.984-91.33c16.605-11.070 35.978-13.838 55.351-13.838s38.746 5.535 55.351 13.838l154.984 91.33c13.838 8.303 27.676 19.373 35.978 33.211 16.605 0 33.211 5.535 49.816 13.838l154.984 91.33c16.605 8.303 30.443 24.908 41.514 41.514s13.838 35.978 13.838 55.351v179.892c-2.768 19.373-8.303 38.746-19.373 55.351zM719.568 674.249v-182.659c0-2.768 0-2.768 0-5.535 0 0-2.768 2.768-2.768 2.768l-154.984 91.33c0 0-2.768 0-2.768 2.768 0 0 2.768 2.768 2.768 2.768l154.984 91.33c0 0 2.768 2.768 2.768 2.768 0-2.768 0-5.535 0-5.535zM290.595 491.589v182.659c0 2.768 0 2.768 0 2.768s2.768 0 2.768-2.768l154.984-91.33c0 0 2.768-2.768 2.768-2.768s-2.768 0-2.768-2.768l-154.984-91.33c0 0-2.768-2.768-2.768-2.768 0 5.535 0 5.535 0 8.303zM478.789 533.103v-179.892c0-2.768 0-2.768 0-2.768l-163.286 94.097 163.286 94.097c0-2.768 0-5.535 0-5.535zM528.605 350.443v179.892c0 2.768 0 2.768 0 5.535l163.286-94.097-163.286-94.097c0 0 0 2.768 0 2.768zM293.362 209.297c0 0-2.768-2.768-2.768-2.768 0 2.768 0 2.768 0 5.535v182.659c0 2.768 0 2.768 0 5.535 0 0 2.768-2.768 2.768-2.768l154.984-91.33c0 0 2.768 0 2.768-2.768 0 0-2.768-2.768-2.768-2.768zM559.049 303.395l154.984 91.33c0 0 2.768 2.768 2.768 2.768 0-2.768 0-2.768 0-5.535v-182.659c0-2.768 0-2.768 0-5.535 0 0-2.768 2.768-2.768 2.768l-154.984 91.33c-2.768 0-2.768 2.768-2.768 2.768 0 2.768 2.768 2.768 2.768 2.768zM318.27 724.065l154.984 91.33c19.373 11.070 41.514 11.070 58.119 0l154.984-91.33c0 0 2.768-2.768 2.768-2.768l-188.195-110.703-188.195 110.703c2.768 2.768 5.535 2.768 5.535 2.768zM235.243 674.249c0 0 2.768 2.768 5.535 2.768 0-2.768 0-2.768 0-5.535v-182.659c0-2.768 0-2.768 0-5.535l-163.286 96.865c0 0 2.768 2.768 2.768 2.768zM318.27 159.481c0 0-2.768 2.768-2.768 2.768s2.768 0 2.768 2.768l154.984 91.33c2.768 0 2.768 2.768 2.768 2.768v-190.962c0 0-2.768 0-2.768 2.768zM534.141 68.151c0 0-2.768 0-2.768-2.768v190.962c2.768 0 2.768-2.768 2.768-2.768l154.984-91.33c0 0 2.768 0 2.768-2.768 0 0-2.768-2.768-2.768-2.768zM957.578 350.443c0-11.070-2.768-22.141-8.303-30.443s-13.838-16.605-22.141-22.141l-154.984-91.33c0 0-2.768-2.768-2.768-2.768v221.405l188.195 110.703c0-2.768 0-2.768 0-5.535zM863.481 621.665c16.605 0 30.443 13.838 30.443 30.443s-13.838 30.443-30.443 30.443c-16.605 0-30.443-13.838-30.443-30.443 0-19.373 13.838-30.443 30.443-30.443zM141.146 253.578c-16.605 0-30.443-13.838-30.443-30.443s13.838-30.443 30.443-30.443c16.605 0 30.443 13.838 30.443 30.443s-13.838 30.443-30.443 30.443z" />
<glyph unicode="&#xe902;" glyph-name="bdv-icon-3dtome-s" d="M1024 612.030c0 0 0 0 0 0-11.378 18.963-22.756 30.341-41.719 41.719-11.378 7.585-30.341 3.793-34.133-11.378-7.585-11.378-3.793-30.341 11.378-37.926 0 0 3.793 0 3.793-3.793l-166.874-98.607c0 3.793 0 3.793 0 3.793v185.837c0 0 0 3.793 0 3.793s3.793 0 3.793-3.793c11.378-7.585 30.341-3.793 34.133 11.378 7.585 11.378 3.793 30.341-11.378 37.926s-30.341 15.17-49.304 15.17c-11.378 15.17-22.756 26.548-37.926 37.926l-159.289 94.815c-34.133 18.963-79.644 18.963-113.778 0l-159.289-94.815c-15.17-7.585-26.548-22.756-37.926-37.926-18.963 0-34.133-7.585-49.304-15.17l-159.289-94.815c-18.963-11.378-30.341-22.756-41.719-41.719 0 0 0 0 0 0-7.585-18.963-15.17-37.926-15.17-56.889v-185.837c0-18.963 3.793-41.719 15.17-56.889 11.378-18.963 22.756-30.341 41.719-41.719 11.378-7.585 30.341-3.793 34.133 11.378 7.585 11.378 3.793 30.341-11.378 37.926-7.585 3.793-15.17 11.378-22.756 22.756-3.793 7.585-7.585 18.963-7.585 30.341v185.837c0 0 0 3.793 0 3.793l193.422-113.778v-227.556c0 0-3.793 0-3.793 3.793-11.378 7.585-30.341 3.793-34.133-11.378-7.585-11.378-3.793-30.341 11.378-37.926s34.133-15.17 49.304-15.17c11.378-15.17 22.756-26.548 37.926-34.133l159.289-94.815c18.963-11.378 37.926-15.17 56.889-15.17s37.926 3.793 56.889 15.17l159.289 94.815c15.17 7.585 26.548 18.963 37.926 34.133 18.963 0 34.133 7.585 49.304 15.17l159.289 94.815c18.963 11.378 30.341 22.756 41.719 41.719 11.378 15.17 15.17 37.926 15.17 56.889v185.837c0 30.341-7.585 49.304-15.17 64.474zM739.556 703.052v-185.837c0 0 0-3.793 0-3.793s-3.793 3.793-3.793 3.793l-159.289 94.815c0 0-3.793 0-3.793 0s3.793 3.793 3.793 3.793l159.289 94.815c0 0 3.793 0 3.793 3.793zM299.615 513.422v185.837c0 0 0 3.793 0 3.793s3.793 0 3.793-3.793l159.289-94.815c0 0 3.793 0 3.793-3.793 0 0-3.793 0-3.793 0l-159.289-94.815c0 0-3.793 0-3.793-3.793zM493.037 555.141v-185.837c0 0 0-3.793 0-3.793l-166.874 98.607 166.874 98.607c0-3.793 0-3.793 0-7.585zM546.133 369.304v185.837c0 0 0 3.793 0 3.793l166.874-98.607-166.874-98.607c0 3.793 0 7.585 0 7.585zM303.407 225.185c0 0-3.793 0-3.793-3.793 0 3.793 0 3.793 0 7.585v185.837c0 0 0 3.793 0 3.793s3.793-3.793 3.793-3.793l159.289-94.815c0 0 3.793 0 3.793-3.793 0 0-3.793-3.793-3.793-3.793zM576.474 323.793l159.289 94.815c0 0 3.793 3.793 3.793 3.793s0-3.793 0-3.793v-185.837c0-3.793 0-3.793 0-7.585 0 0-3.793 0-3.793 3.793l-159.289 94.815c0 0-3.793 3.793-3.793 3.793 0-7.585 0-7.585 3.793-3.793zM329.956 756.148l159.289 94.815c18.963 11.378 41.719 11.378 60.681 0l159.289-94.815c0 0 3.793 0 3.793-3.793l-193.422-113.778-193.422 113.778zM242.726 703.052c0 0 3.793 0 3.793 3.793 0 0 0-3.793 0-3.793v-185.837c0 0 0-3.793 0-3.793l-166.874 98.607c0 0 3.793 0 3.793 3.793zM329.956 172.089c-3.793 3.793-3.793 3.793 0 0-3.793 3.793 0 3.793 0 3.793l159.289 94.815c0 0 3.793 0 3.793 3.793v-197.215c0 0-3.793 0-3.793 3.793zM549.926 81.067c0 0-3.793 0-3.793-3.793v197.215c0 0 3.793-3.793 3.793-3.793l159.289-94.815c0 0 3.793 0 3.793 0s0 0-3.793-3.793zM986.074 369.304c0-11.378-3.793-22.756-7.585-30.341s-11.378-18.963-22.756-22.756l-159.289-94.815c0 0-3.793 0-3.793-3.793v227.556l193.422 113.778c0 0 0-3.793 0-3.793zM887.467 646.163c15.17 0 30.341 15.17 30.341 30.341s-15.17 30.341-30.341 30.341c-15.17 0-30.341-15.17-30.341-30.341s15.17-30.341 30.341-30.341zM144.119 270.696c-15.17 0-30.341-15.17-30.341-30.341s15.17-30.341 30.341-30.341c15.17 0 30.341 15.17 30.341 30.341s-11.378 30.341-30.341 30.341z" />
<glyph unicode="&#xe903;" glyph-name="bdv-icon-academy-l" d="M991.232 633.856l-12.288-24.576v2.048l12.288 22.528-458.752 208.896c-12.288 6.144-28.672 6.144-43.008 0l-458.752-208.896c-40.96-18.432-40.96-75.776 0-94.208l129.024-57.344v-208.896c0-67.584 45.056-124.928 108.544-163.84s149.504-61.44 241.664-61.44c92.16 0 178.176 22.528 241.664 61.44s108.544 96.256 108.544 163.84v208.896l49.152 22.528v-411.648c0-16.384 12.288-28.672 28.672-28.672s28.672 12.288 28.672 28.672v436.224l22.528 10.24c40.96 18.432 40.96 77.824 2.048 94.208zM802.816 273.408c0-40.96-26.624-83.968-79.872-116.736s-126.976-53.248-212.992-53.248c-83.968 0-159.744 20.48-212.992 53.248s-79.872 75.776-79.872 116.736v182.272l272.384-120.832c12.288-6.144 28.672-6.144 40.96 0l-10.24 22.528-2.048 4.096 12.288-26.624 272.384 120.832zM501.76 361.472v0l8.192 20.48zM933.888 576.512l-419.84 40.96c-16.384 2.048-28.672-10.24-30.72-24.576-2.048-16.384 10.24-30.72 24.576-30.72l321.536-30.72-6.144-2.048c-2.048 0-2.048-2.048-4.096-2.048l-309.248-137.216-309.248 139.264c0 0 0 0 0 0l-135.168 61.44 446.464 202.752 446.464-202.752z" />
<glyph unicode="&#xe904;" glyph-name="bdv-icon-academy-m" d="M978.335 637.578l-11.070-24.908v2.768l11.070 22.141-453.881 207.568c-13.838 5.535-27.676 5.535-41.514 0l-453.881-207.568c-38.746-19.373-38.746-77.492 0-94.097l130.076-58.119v-207.568c0-69.189 44.281-124.541 107.935-163.286s146.681-60.886 240.778-60.886c91.33 0 177.124 22.141 240.778 60.886 60.886 38.746 107.935 94.097 107.935 163.286v207.568l49.816 22.141v-406.832c0-16.605 13.838-27.676 27.676-27.676 16.605 0 27.676 11.070 27.676 27.676v431.741l22.141 11.070c35.978 19.373 35.978 74.724-5.535 94.097zM792.908 280.562c0-41.514-27.676-83.027-80.259-116.238s-127.308-52.584-210.335-52.584c-83.027 0-157.751 22.141-210.335 52.584-52.584 33.211-80.259 74.724-80.259 116.238v179.892l268.454-119.005c13.838-5.535 27.676-5.535 41.514 0l-11.070 22.141-2.768 2.768 11.070-24.908 268.454 119.005zM494.011 366.357v0l8.303 19.373zM922.984 579.459l-417.903 38.746c-16.605 2.768-30.443-11.070-30.443-24.908-2.768-16.605 11.070-30.443 24.908-30.443l318.27-30.443-5.535-2.768c0 0-2.768 0-2.768-2.768l-304.432-135.611-307.2 135.611c0 0 0 0 0 0l-135.611 60.886 442.811 202.032 442.811-202.032z" />
<glyph unicode="&#xe905;" glyph-name="bdv-icon-academy-s" d="M1005.985 647.111l-11.378-26.548v3.793l11.378 22.756-466.489 212.385c-15.17 7.585-30.341 7.585-41.719 0l-466.489-212.385c-41.719-18.963-41.719-79.644 0-94.815l132.741-60.681v-212.385c0-68.267 45.511-128.948 109.985-166.874s151.704-64.474 246.519-64.474c94.815 0 182.044 22.756 246.519 64.474 64.474 37.926 109.985 98.607 109.985 166.874v212.385l49.304 22.756v-417.185c0-15.17 11.378-30.341 30.341-30.341 15.17 0 30.341 11.378 30.341 30.341v443.733l22.756 11.378c34.133 18.963 34.133 75.852-3.793 94.815zM812.563 279.23c0-41.719-26.548-83.437-83.437-117.57-53.096-34.133-128.948-53.096-216.178-53.096s-163.081 22.756-216.178 53.096c-53.096 34.133-83.437 75.852-83.437 117.57v185.837l276.859-125.156c15.17-7.585 30.341-7.585 41.719 0l-11.378 22.756v3.793l11.378-26.548 276.859 125.156zM505.363 370.252v0l7.585 18.963zM945.304 590.222l-428.563 41.719c-15.17 0-30.341-11.378-30.341-26.548s11.378-30.341 26.548-30.341l326.163-30.341-7.585-3.793c0 0-3.793 0-3.793 0l-314.785-140.326-314.785 140.326c0 0 0 0 0 0l-140.326 60.681 455.111 208.593 455.111-208.593z" />
<glyph unicode="&#xe906;" glyph-name="bdv-icon-add-l" d="M512 906.538c-252.916 0-458.538-205.622-458.538-458.538s205.622-458.538 458.538-458.538c252.916 0 458.538 205.622 458.538 458.538s-205.622 458.538-458.538 458.538zM0 448c0 283.759 230.297 512 512 512s512-228.241 512-512c0-283.759-230.297-512-512-512s-512 228.241-512 512zM512 637.173c14.394 0 26.731-12.337 26.731-26.731v-135.711h135.711c14.394 0 26.731-12.337 26.731-26.731s-12.337-26.731-26.731-26.731h-135.711v-135.711c0-14.394-12.337-26.731-26.731-26.731s-26.731 12.337-26.731 26.731v135.711h-135.711c-14.394 0-26.731 12.337-26.731 26.731s12.337 26.731 26.731 26.731h135.711v135.711c0 14.394 12.337 26.731 26.731 26.731z" />
<glyph unicode="&#xe907;" glyph-name="bdv-icon-add-m" d="M512 904.044c-251.803 0-456.044-204.24-456.044-456.044s204.24-456.044 456.044-456.044c251.803 0 456.044 204.24 456.044 456.044s-204.24 456.044-456.044 456.044zM0 448c0 282.579 229.421 512 512 512s512-229.421 512-512c0-282.579-229.421-512-512-512s-512 229.421-512 512zM512 635.454c13.989 0 27.978-11.191 27.978-27.978v-134.295h134.295c13.989 0 27.978-11.191 27.978-27.978 0-13.989-11.191-27.978-27.978-27.978h-134.295v-134.295c0-13.989-11.191-27.978-27.978-27.978s-27.978 11.191-27.978 27.978v134.295h-134.295c-13.989 0-27.978 11.191-27.978 27.978 0 13.989 11.191 27.978 27.978 27.978h134.295v134.295c0 16.787 11.191 27.978 27.978 27.978z" />
<glyph unicode="&#xe908;" glyph-name="bdv-icon-add-s" d="M512 907.679c-254.131 0-459.679-205.547-459.679-459.679s205.547-459.679 459.679-459.679c254.131 0 459.679 205.547 459.679 459.679s-205.547 459.679-459.679 459.679zM0 448c0 284.029 227.971 512 512 512s512-227.971 512-512c0-284.029-227.971-512-512-512s-512 227.971-512 512zM512 634.861c14.949 0 26.161-11.212 26.161-26.161v-134.54h134.54c14.949 0 26.161-11.212 26.161-26.161s-11.212-26.161-26.161-26.161h-134.54v-134.54c0-14.949-11.212-26.161-26.161-26.161s-26.161 11.212-26.161 26.161v134.54h-134.54c-14.949 0-26.161 11.212-26.161 26.161s11.212 26.161 26.161 26.161h134.54v134.54c0 14.949 11.212 26.161 26.161 26.161z" />
<glyph unicode="&#xe909;" glyph-name="bdv-icon-agreed-l" d="M995.328 706.81l-61.44 63.488c-10.24 10.24-24.576 10.24-34.816 0s-10.24-26.624 0-34.816l61.44-63.488c16.384-16.384 16.384-45.056 0-61.44l-16.384-18.432c-24.576-26.624-40.96-59.392-47.104-94.208-4.096-20.48-12.288-47.104-28.672-69.632l-69.632 71.68c0 0 0 0 0 0l-104.448 110.592c18.432 8.192 36.864 20.48 53.248 34.816l30.72 26.624c10.24 8.192 12.288 24.576 2.048 34.816-8.192 10.24-24.576 12.288-34.816 2.048l-30.72-26.624c-40.96-34.816-94.208-51.2-147.456-45.056l-59.392 8.192c-6.144 0-14.336-2.048-18.432-6.144-38.912-34.816-86.016-57.344-135.168-67.584-4.096-2.048-10.24 0-14.336 4.096s-8.192 10.24-8.192 16.384c0 6.144 0 12.288 4.096 18.432l112.64 145.408c14.336 18.432 34.816 28.672 57.344 28.672h79.872c28.672 0 57.344 10.24 79.872 28.672l57.344 49.152c16.384 14.336 43.008 14.336 57.344-2.048 10.24-10.24 24.576-10.24 34.816 0s10.24 26.624 0 34.816c-34.816 34.816-88.064 36.864-124.928 6.144l-57.344-49.152c-14.336-12.288-30.72-18.432-49.152-18.432h-131.072c-28.672 0-55.296 12.288-73.728 30.72l-38.912 38.912c-36.864 34.816-94.208 34.816-129.024-2.048l-184.32-190.464c-16.384-18.432-26.624-43.008-26.624-67.584s10.24-49.152 28.672-67.584l10.24-10.24c24.576-24.576 40.96-55.296 51.2-88.064l22.528-77.824-4.096-6.144c0 0 0-2.048-2.048-2.048-14.336-16.384-22.528-36.864-22.528-59.392 0-24.576 10.24-47.104 26.624-63.488 16.384-18.432 40.96-26.624 63.488-26.624 0 0 2.048 0 2.048 0s0-2.048 0-2.048c0-24.576 8.192-47.104 26.624-63.488 16.384-18.432 38.912-26.624 61.44-26.624 0 0 2.048 0 2.048 0s0-2.048 0-2.048c0-24.576 10.24-47.104 26.624-63.488 16.384-18.432 38.912-26.624 63.488-26.624 0 0 2.048 0 2.048 0s0-2.048 0-2.048c0-24.576 8.192-47.104 26.624-63.488 16.384-18.432 38.912-26.624 61.44-26.624s45.056 8.192 63.488 26.624l36.864 38.912 24.576 24.576c10.24 10.24 16.384 22.528 20.48 34.816l12.288-12.288c16.384-16.384 38.912-26.624 63.488-26.624s45.056 10.24 63.488 26.624c18.432 18.432 26.624 43.008 24.576 67.584 0 0 2.048 0 2.048 0 22.528 0 45.056 10.24 61.44 26.624 18.432 18.432 26.624 43.008 24.576 67.584 0 0 2.048 0 2.048 0 24.576 0 45.056 10.24 63.488 26.624 34.816 34.816 34.816 94.208 0 129.024l-2.048 2.048c22.528 32.768 34.816 67.584 40.96 96.256 6.144 26.624 18.432 51.2 36.864 71.68l16.384 18.432c30.72 28.672 30.72 86.016-6.144 122.88zM145.408 299.258c-8.192 8.192-12.288 18.432-12.288 28.672s4.096 20.48 12.288 28.672l61.44 63.488c14.336 16.384 40.96 16.384 55.296 0 8.192-8.192 12.288-18.432 12.288-28.672s-4.096-20.48-12.288-28.672l-61.44-63.488c-14.336-16.384-40.96-16.384-55.296 0zM235.52 207.098c-8.192 8.192-12.288 18.432-12.288 28.672s4.096 20.48 12.288 28.672l90.112 92.16c14.336 16.384 40.96 16.384 55.296 0 8.192-8.192 12.288-18.432 12.288-28.672s-4.096-20.48-12.288-28.672l-86.016-88.064-4.096-4.096c-14.336-16.384-38.912-16.384-55.296 0zM325.632 112.89c-8.192 8.192-12.288 18.432-12.288 28.672s4.096 20.48 12.288 28.672l61.44 63.488c14.336 16.384 40.96 16.384 55.296 0 8.192-8.192 12.288-18.432 12.288-28.672s-4.096-20.48-12.288-28.672l-61.44-63.488c-14.336-16.384-38.912-16.384-55.296 0zM415.744 18.682c-8.192 8.192-12.288 18.432-12.288 28.672s4.096 20.48 12.288 28.672l61.44 63.488c14.336 16.384 40.96 16.384 55.296 0 8.192-8.192 12.288-18.432 12.288-28.672s-4.096-20.48-12.288-28.672l-61.44-63.488c-14.336-14.336-38.912-14.336-55.296 0zM872.448 293.114c-14.336-16.384-40.96-16.384-55.296 0l-63.488 65.536c-10.24 10.24-24.576 10.24-34.816 0s-10.24-26.624 0-34.816l63.488-65.536c16.384-16.384 16.384-40.96 0-57.344-14.336-16.384-40.96-16.384-55.296 0l-63.488 65.536c-10.24 10.24-24.576 10.24-34.816 0s-10.24-26.624 0-34.816l6.144-6.144 57.344-59.392c16.384-16.384 16.384-40.96 0-57.344-14.336-16.384-40.96-16.384-55.296 0l-63.488 65.536c0 0 0 0-2.048 0-2.048 2.048-2.048 2.048-4.096 4.096-16.384 16.384-38.912 26.624-61.44 26.624 0 0-2.048 0-2.048 0s0 2.048 0 2.048c0 24.576-8.192 47.104-26.624 63.488-12.288 12.288-26.624 20.48-43.008 24.576 4.096 10.24 6.144 22.528 6.144 32.768 0 24.576-10.24 47.104-26.624 65.536-16.384 16.384-38.912 26.624-63.488 26.624-12.288 0-22.528-2.048-32.768-6.144-4.096 16.384-12.288 30.72-22.528 43.008-16.384 16.384-38.912 26.624-61.44 26.624s-43.008-8.192-57.344-22.528c0 0-2.048 0-2.048-2.048l-20.48-20.48-14.336 51.2c-12.288 40.96-32.768 79.872-63.488 110.592l-10.24 10.24c-8.192 8.192-12.288 20.48-12.288 32.768s4.096 22.528 12.288 32.768l186.368 190.464c16.384 16.384 43.008 18.432 61.44 0l38.912-36.864c18.432-18.432 43.008-32.768 67.584-38.912-2.048-2.048-2.048-2.048-4.096-4.096l-112.64-145.408c-12.288-16.384-18.432-34.816-16.384-55.296s12.288-36.864 26.624-49.152c12.288-10.24 26.624-14.336 40.96-14.336 4.096 0 8.192 0 14.336 2.048 55.296 12.288 106.496 36.864 149.504 71.68l49.152-6.144c26.624-4.096 55.296-2.048 81.92 2.048l208.896-221.184c2.048-2.048 6.144-4.096 8.192-6.144l10.24-12.288c12.288-18.432 12.288-43.008-4.096-59.392zM860.16 788.73c12.288 0 24.576 10.24 24.576 24.576s-10.24 24.576-24.576 24.576c-14.336 0-24.576-10.24-24.576-24.576 2.048-14.336 12.288-24.576 24.576-24.576z" />
<glyph unicode="&#xe90a;" glyph-name="bdv-icon-agreed-m" d="M985.254 712.956l-60.886 63.654c-8.303 8.303-24.908 8.303-33.211 0s-8.303-24.908 0-35.978l60.886-63.654c16.605-16.605 16.605-44.281 0-60.886l-16.605-19.373c-22.141-24.908-38.746-58.119-47.049-94.097-5.535-19.373-13.838-47.049-27.676-69.189l-69.189 71.957c0 0 0 0 0 0l-102.4 110.703c19.373 8.303 35.978 19.373 52.584 33.211l30.443 27.676c11.070 8.303 11.070 24.908 2.768 35.978s-24.908 11.070-33.211 2.768l-30.443-27.676c-41.514-35.978-94.097-49.816-146.681-44.281l-58.119 8.303c-5.535 0-13.838 0-19.373-5.535-38.746-33.211-85.795-58.119-135.611-66.422-5.535 0-11.070 0-13.838 2.768-5.535 2.768-8.303 8.303-8.303 16.605 0 5.535 0 13.838 5.535 16.605l110.703 143.914c13.838 16.605 35.978 27.676 58.119 27.676h77.492c27.676 0 55.351 11.070 80.259 30.443l58.119 49.816c16.605 13.838 41.514 13.838 58.119-2.768 8.303-11.070 24.908-11.070 33.211 0 8.303 8.303 8.303 24.908 0 35.978-33.211 35.978-85.795 35.978-121.773 5.535l-58.119-49.816c-13.838-11.070-30.443-19.373-49.816-19.373h-130.076c-27.676 0-52.584 11.070-74.724 30.443l-38.746 38.746c-35.978 35.978-94.097 33.211-127.308-2.768l-182.659-188.195c-16.605-19.373-27.676-41.514-27.676-66.422s11.070-49.816 27.676-66.422l11.070-11.070c24.908-24.908 41.514-55.351 49.816-88.562l22.141-77.492-5.535-5.535c0 0 0-2.768-2.768-2.768-13.838-16.605-22.141-38.746-22.141-60.886 0-24.908 8.303-47.049 24.908-63.654s38.746-27.676 60.886-27.676c0 0 2.768 0 2.768 0s0-2.768 0-2.768c0-24.908 8.303-47.049 24.908-63.654s38.746-27.676 60.886-27.676c0 0 2.768 0 2.768 0s0-2.768 0-2.768c0-24.908 8.303-47.049 24.908-63.654s38.746-27.676 60.886-27.676c0 0 2.768 0 2.768 0s0-2.768 0-2.768c0-24.908 8.303-47.049 24.908-63.654s38.746-24.908 60.886-24.908c22.141 0 44.281 8.303 60.886 24.908l35.978 38.746 24.908 24.908c8.303 11.070 16.605 22.141 22.141 35.978l11.070-11.070c16.605-16.605 38.746-27.676 60.886-27.676s44.281 8.303 60.886 27.676c16.605 19.373 24.908 41.514 24.908 66.422 0 0 2.768 0 2.768 0 22.141 0 44.281 8.303 60.886 27.676s24.908 41.514 24.908 66.422c0 0 2.768 0 2.768 0 22.141 0 47.049 8.303 60.886 24.908 33.211 35.978 33.211 91.33 0 127.308l-2.768 2.768c22.141 33.211 35.978 66.422 41.514 94.097s19.373 52.584 35.978 71.957l16.605 19.373c44.281 38.746 44.281 94.097 8.303 132.843zM143.914 308.891c-8.303 8.303-11.070 16.605-11.070 27.676s2.768 22.141 11.070 27.676l60.886 63.654c13.838 16.605 41.514 16.605 55.351 0 8.303-8.303 11.070-16.605 11.070-27.676s-2.768-22.141-11.070-27.676l-60.886-63.654c-16.605-16.605-41.514-16.605-55.351 0zM232.476 217.561c-8.303 8.303-11.070 19.373-11.070 27.676 0 11.070 2.768 22.141 11.070 27.676l88.562 91.33c13.838 13.838 41.514 13.838 55.351 0 8.303-8.303 11.070-19.373 11.070-27.676 0-11.070-2.768-22.141-11.070-27.676l-83.027-85.795-5.535-5.535c-13.838-16.605-38.746-16.605-55.351 0zM323.805 123.464c-8.303 8.303-11.070 16.605-11.070 27.676s2.768 22.141 11.070 27.676l60.886 63.654c13.838 16.605 41.514 16.605 55.351 0 8.303-8.303 11.070-16.605 11.070-27.676s-2.768-22.141-11.070-27.676l-60.886-63.654c-16.605-13.838-41.514-13.838-55.351 0zM412.368 32.134c-8.303 8.303-11.070 16.605-11.070 27.676s2.768 22.141 11.070 27.676l60.886 63.654c13.838 13.838 41.514 13.838 55.351 0 8.303-8.303 11.070-16.605 11.070-27.676s-2.768-22.141-11.070-27.676l-60.886-63.654c-16.605-16.605-41.514-16.605-55.351 0zM863.481 303.356c-13.838-16.605-41.514-16.605-55.351 0l-63.654 63.654c-8.303 11.070-24.908 11.070-33.211 0-8.303-8.303-11.070-24.908 0-35.978l63.654-63.654c13.838-16.605 13.838-41.514 0-58.119s-41.514-16.605-55.351 0l-63.654 63.654c-8.303 8.303-24.908 8.303-33.211 0s-8.303-24.908 0-35.978l5.535-5.535 55.351-58.119c13.838-16.605 13.838-41.514 0-58.119-13.838-13.838-41.514-13.838-55.351 0l-63.654 63.654c0 0 0 0 0 0s-2.768 2.768-2.768 2.768c-16.605 16.605-38.746 27.676-60.886 27.676 0 0-2.768 0-2.768 0s0 2.768 0 2.768c0 24.908-8.303 47.049-24.908 63.654-11.070 11.070-27.676 19.373-41.514 24.908 2.768 11.070 5.535 22.141 5.535 33.211 0 24.908-8.303 47.049-24.908 63.654s-38.746 27.676-60.886 27.676c-11.070 0-22.141-2.768-33.211-5.535-2.768 16.605-11.070 30.443-22.141 44.281-16.605 16.605-38.746 27.676-60.886 27.676s-41.514-8.303-58.119-22.141c0 0-2.768 0-2.768 0l-19.373-22.141-13.838 49.816c-11.070 41.514-33.211 80.259-63.654 107.935l-11.070 11.070c-8.303 8.303-13.838 19.373-13.838 30.443s5.535 22.141 13.838 30.443l182.659 188.195c16.605 16.605 44.281 16.605 60.886 0l38.746-38.746c19.373-19.373 41.514-33.211 66.422-38.746 0 0-2.768-2.768-2.768-2.768l-110.703-143.914c-11.070-16.605-16.605-33.211-16.605-52.584 2.768-19.373 11.070-35.978 27.676-49.816 11.070-8.303 24.908-13.838 41.514-13.838 5.535 0 8.303 0 13.838 2.768 52.584 11.070 105.168 35.978 146.681 71.957l47.049-5.535c27.676-2.768 55.351-2.768 80.259 2.768l207.568-218.638c2.768-2.768 5.535-5.535 8.303-5.535l11.070-11.070c11.070-16.605 11.070-44.281-5.535-58.119zM852.411 793.215c13.838 0 22.141 11.070 22.141 24.908s-11.070 24.908-22.141 24.908c-13.838 0-24.908-11.070-24.908-24.908s11.070-24.908 24.908-24.908z" />
<glyph unicode="&#xe90b;" glyph-name="bdv-icon-agreed-s" d="M980.114 707.182l-62.171 62.171c-10.971 10.971-25.6 10.971-32.914 0-10.971-10.971-10.971-25.6 0-36.571l62.171-62.171c14.629-18.286 18.286-43.886 0-62.171l-18.286-18.286c-21.943-25.6-40.229-58.514-47.543-91.429-3.657-18.286-10.971-47.543-29.257-69.486l-69.486 69.486c0 0 0 0 0 0l-102.4 109.714c18.286 7.314 36.571 18.286 51.2 32.914l29.257 25.6c10.971 7.314 10.971 25.6 3.657 36.571s-21.943 10.971-32.914 3.657l-29.257-25.6c-40.229-36.571-95.086-51.2-146.286-43.886l-58.514 7.314c-7.314 0-14.629 0-18.286-7.314-36.571-32.914-84.114-58.514-131.657-65.829-3.657 0-10.971 0-14.629 3.657s-7.314 10.971-7.314 14.629c0 7.314 0 10.971 3.657 18.286l109.714 142.629c14.629 18.286 32.914 29.257 58.514 29.257h76.8c29.257 0 54.857 10.971 76.8 29.257l54.857 47.543c18.286 14.629 40.229 14.629 58.514-3.657 10.971-10.971 25.6-10.971 32.914 0 10.971 10.971 10.971 25.6 0 36.571-32.914 32.914-84.114 36.571-120.686 7.314l-54.857-47.543c-14.629-10.971-29.257-18.286-47.543-18.286h-128c-29.257 0-54.857 10.971-73.143 29.257l-36.571 36.571c-36.571 36.571-91.429 32.914-128 0l-182.857-186.514c-18.286-18.286-25.6-40.229-25.6-65.829s10.971-47.543 25.6-65.829l10.971-10.971c21.943-25.6 40.229-54.857 51.2-87.771l21.943-76.8-3.657-3.657c0 0 0 0 0-3.657-14.629-14.629-21.943-36.571-21.943-58.514 0-25.6 7.314-47.543 25.6-62.171 18.286-18.286 40.229-25.6 62.171-25.6 0 0 0 0 3.657 0 0 0 0 0 0-3.657 0-25.6 7.314-47.543 25.6-62.171 18.286-18.286 40.229-25.6 62.171-25.6 0 0 0 0 3.657 0 0 0 0 0 0-3.657 0-25.6 7.314-47.543 25.6-62.171 18.286-18.286 40.229-25.6 62.171-25.6 0 0 0 0 3.657 0 0 0 0 0 0-3.657 0-25.6 7.314-47.543 25.6-62.171 18.286-18.286 40.229-25.6 62.171-25.6s43.886 7.314 62.171 25.6l36.571 36.571 21.943 25.6c10.971 10.971 18.286 21.943 21.943 36.571l10.971-10.971c18.286-18.286 36.571-25.6 62.171-25.6 21.943 0 43.886 10.971 62.171 25.6 18.286 18.286 25.6 40.229 25.6 65.829 0 0 0 0 3.657 0 21.943 0 43.886 10.971 62.171 25.6 18.286 18.286 25.6 40.229 25.6 65.829 0 0 0 0 3.657 0 21.943 0 43.886 10.971 62.171 25.6 32.914 36.571 32.914 91.429 0 128l-3.657 3.657c21.943 32.914 32.914 65.829 40.229 95.086 7.314 25.6 18.286 51.2 36.571 69.486l18.286 18.286c14.629 29.257 14.629 87.771-18.286 120.686zM142.629 308.554c-7.314 7.314-10.971 18.286-10.971 29.257s3.657 21.943 10.971 29.257l58.514 62.171c14.629 14.629 40.229 14.629 54.857 0 7.314-7.314 10.971-18.286 10.971-29.257s-3.657-21.943-10.971-29.257l-58.514-62.171c-14.629-14.629-40.229-14.629-54.857 0zM230.4 217.125c-7.314 7.314-10.971 18.286-10.971 29.257s3.657 21.943 10.971 29.257l87.771 91.429c14.629 14.629 40.229 14.629 54.857 0 7.314-7.314 10.971-18.286 10.971-29.257s-3.657-21.943-10.971-29.257l-84.114-87.771-3.657-3.657c-14.629-14.629-40.229-14.629-54.857 0zM321.829 125.696c-7.314 7.314-10.971 18.286-10.971 29.257s3.657 21.943 10.971 29.257l58.514 62.171c14.629 14.629 40.229 14.629 54.857 0 7.314-7.314 10.971-18.286 10.971-29.257s-3.657-21.943-10.971-29.257l-58.514-62.171c-18.286-14.629-40.229-14.629-54.857 0zM409.6 34.268c-7.314 7.314-10.971 18.286-10.971 29.257s3.657 21.943 10.971 29.257l58.514 62.171c14.629 14.629 40.229 14.629 54.857 0 7.314-7.314 10.971-18.286 10.971-29.257s-3.657-21.943-10.971-29.257l-58.514-62.171c-14.629-14.629-40.229-14.629-54.857 0zM855.771 301.239c-14.629-14.629-40.229-14.629-54.857 0l-62.171 65.829c-10.971 10.971-25.6 10.971-32.914 0-10.971-10.971-10.971-25.6 0-36.571l62.171-65.829c14.629-14.629 14.629-40.229 0-54.857s-40.229-14.629-54.857 0l-62.171 65.829c-10.971 10.971-25.6 10.971-32.914 0-10.971-10.971-10.971-25.6 0-36.571l7.314-7.314 54.857-58.514c14.629-14.629 14.629-40.229 0-54.857s-40.229-14.629-54.857 0l-62.171 65.829c0 0 0 0 0 0s0 3.657-3.657 3.657c-18.286 18.286-36.571 25.6-62.171 25.6 0 0 0 0-3.657 0 0 0 0 0 0 3.657 0 25.6-7.314 47.543-25.6 62.171-10.971 10.971-25.6 18.286-40.229 21.943 3.657 10.971 7.314 21.943 7.314 32.914 0 25.6-7.314 47.543-25.6 62.171-18.286 18.286-36.571 25.6-62.171 25.6-10.971 0-21.943-3.657-32.914-7.314-3.657 14.629-10.971 32.914-21.943 43.886-18.286 18.286-36.571 25.6-62.171 25.6-21.943 0-40.229-7.314-58.514-21.943 0 0 0 0-3.657 0l-21.943-21.943-14.629 51.2c-10.971 40.229-32.914 76.8-62.171 109.714l-10.971 10.971c-7.314 7.314-14.629 18.286-14.629 32.914s3.657 21.943 10.971 32.914l182.857 186.514c14.629 18.286 43.886 18.286 58.514 0l36.571-36.571c18.286-18.286 40.229-32.914 65.829-40.229 0 0-3.657-3.657-3.657-3.657l-109.714-142.629c-10.971-14.629-18.286-32.914-14.629-54.857 3.657-18.286 10.971-36.571 25.6-47.543 10.971-10.971 25.6-14.629 40.229-14.629 3.657 0 7.314 0 14.629 0 54.857 10.971 102.4 36.571 146.286 69.486l47.543-7.314c25.6-3.657 54.857-3.657 80.457 3.657l204.8-215.771c3.657-3.657 3.657-3.657 7.314-7.314l10.971-10.971c21.943-10.971 21.943-36.571 7.314-54.857zM844.8 787.639c14.629 0 21.943 10.971 21.943 25.6s-10.971 25.6-21.943 25.6c-14.629 0-21.943-10.971-21.943-25.6s10.971-25.6 21.943-25.6z" />
<glyph unicode="&#xe90c;" glyph-name="bdv-icon-appstore-l" horiz-adv-x="1022" d="M1021.948 762.998c-6.156 45.146-22.573 80.032-47.198 110.814-45.146 57.459-104.657 86.188-174.429 86.188-194.95 0-391.952 0-576.641 0-110.814 0-207.263-84.136-221.627-194.95-2.052-12.313-2.052-24.625-2.052-34.886 0-57.459 0-114.918 0-170.325v-6.156c0-127.23 0-258.565 0-387.848 0-112.866 82.084-211.367 192.898-227.784v0c2.052 0 6.156-2.052 8.208-2.052h617.683c2.052 0 2.052 0 4.104 0 41.042 6.156 75.928 20.521 104.657 43.094 49.251 36.938 77.98 84.136 90.293 145.699l2.052 8.208c0 2.052 0 4.104 0 6.156v617.683c4.104 2.052 2.052 4.104 2.052 6.156zM57.459 553.683v4.104c0 57.459 0 114.918 0 170.325 0 8.208 0 18.469 2.052 26.677 12.313 84.136 82.084 145.699 166.22 145.699 184.689 0 381.691 0 576.641 0 51.303 0 94.397-22.573 129.283-65.667 18.469-22.573 28.729-49.251 34.886-82.084v-613.579l-2.052-6.156c-8.208-45.146-30.782-82.084-67.719-108.762-22.573-16.417-47.198-26.677-77.98-32.834h-611.527c-2.052 0-2.052 0-4.104 0-84.136 12.313-147.752 86.188-145.699 170.325 0 133.387 0 264.721 0 391.952zM215.471 276.649c61.563 0 125.178 0 186.741 0 63.615 0 127.23 0 188.794 0 10.261 0 10.261 0 6.156 10.261-16.417 28.729-32.834 55.407-49.251 84.136-4.104 6.156-8.208 8.208-16.417 8.208-28.729 0-57.459 0-86.188 0-10.261 0-10.261 0-6.156 10.261 18.469 30.782 34.886 61.563 53.355 92.345 36.938 63.615 73.876 129.283 110.814 192.898 6.156 12.313 12.313 22.573 10.261 36.938-4.104 22.573-18.469 41.042-41.042 45.146-20.521 4.104-43.094-4.104-55.407-24.625-6.156-10.261-6.156-10.261-14.365 0-10.261 14.365-22.573 22.573-38.99 24.625-41.042 2.052-69.772-38.99-49.251-75.928 10.261-18.469 20.521-36.938 30.782-55.407 4.104-6.156 4.104-12.313 0-18.469-43.094-73.876-84.136-145.699-125.178-217.523-4.104-6.156-8.208-8.208-14.365-8.208-28.729 0-59.511 0-88.24 0-8.208 0-16.417-2.052-22.573-4.104-22.573-10.261-32.834-32.834-28.729-57.459 6.156-26.677 24.625-43.094 49.251-43.094zM586.902 563.944c-16.417-26.677-30.782-53.355-47.198-80.032-4.104-8.208-4.104-12.313 0-20.521 36.938-63.615 73.876-127.23 110.814-192.898 18.469-32.834 38.99-65.667 57.459-100.553 10.261-18.469 24.625-28.729 47.198-28.729 6.156 0 12.313 0 16.417 2.052 30.782 12.313 43.094 45.146 28.729 73.876-8.208 16.417-18.469 30.782-26.677 47.198-4.104 6.156-4.104 10.261 6.156 10.261 8.208 0 18.469 0 26.677 0 30.782 0 53.355 22.573 53.355 51.303s-22.573 51.303-53.355 51.303c-26.677 0-53.355 0-80.032 0-12.313 0-18.469 4.104-24.625 14.365-32.834 57.459-65.667 114.918-98.501 170.325-8.208 14.365-10.261 14.365-16.417 2.052zM254.461 237.659c-16.417 0-24.625-4.104-30.782-18.469 0-2.052-2.052-4.104-4.104-8.208-12.313-32.834 12.313-67.719 57.459-67.719 12.313 0 26.677 10.261 36.938 26.677 12.313 18.469 22.573 38.99 32.834 57.459 4.104 8.208 4.104 10.261-6.156 10.261-28.729 0-57.459-2.052-86.188 0z" />
<glyph unicode="&#xe90d;" glyph-name="bdv-icon-appstore-m" horiz-adv-x="1027" d="M1024 760.811c-8.416 44.888-22.444 81.359-47.693 112.219-44.888 58.915-103.803 86.97-173.94 86.97-196.384 0-392.767 0-577.929 0-112.219 0-207.605-84.164-221.633-196.384-2.805-11.222-2.805-25.249-2.805-33.666 0-56.11 0-115.025 0-171.134v-5.611c0-126.247 0-258.104 0-387.156 0-112.219 84.164-210.411 193.578-227.244v2.805-5.611c2.805 0 5.611 0 8.416 0h620.011c2.805 0 2.805 0 5.611 0 42.082 5.611 75.748 19.638 106.608 42.082 47.693 36.471 78.553 84.164 89.775 145.885l2.805 8.416c0 2.805 0 2.805 0 5.611v620.011c-2.805 0-2.805 0-2.805 2.805zM56.11 550.4v5.611c0 56.11 0 115.025 0 171.134 0 8.416 0 16.833 2.805 28.055 11.222 84.164 84.164 145.885 165.523 145.885 185.162 0 381.545 0 577.929 0 50.499 0 95.386-22.444 129.052-64.526 16.833-22.444 30.86-50.499 33.666-81.359v-620.011c-8.416-44.888-30.86-81.359-67.332-109.414-22.444-16.833-47.693-28.055-78.553-30.86h-611.595c0 0-2.805 0-2.805 0-84.164 11.222-145.885 84.164-145.885 171.134-2.805 126.247-2.805 258.104-2.805 384.351zM216.022 272.658c61.721 0 123.441 0 187.967 0s126.247 0 190.773 0c11.222 0 11.222 0 5.611 8.416-16.833 28.055-33.666 56.11-47.693 84.164-2.805 5.611-8.416 8.416-16.833 8.416-28.055 0-58.915 0-86.97 0-11.222 0-11.222 0-5.611 8.416 16.833 30.86 36.471 61.721 53.304 92.581 36.471 64.526 75.748 129.052 112.219 193.578 5.611 11.222 11.222 22.444 8.416 36.471-2.805 22.444-19.638 39.277-39.277 44.888-22.444 5.611-42.082-2.805-56.11-25.249-5.611-11.222-8.416-11.222-14.027 0-8.416 14.027-22.444 22.444-39.277 25.249-42.082 2.805-70.137-39.277-50.499-75.748 8.416-19.638 19.638-36.471 30.86-56.11 2.805-5.611 2.805-11.222 0-19.638-42.082-72.942-84.164-145.885-126.247-218.827-2.805-5.611-8.416-8.416-14.027-8.416-30.86 0-58.915 0-86.97 0-8.416 0-16.833-2.805-22.444-5.611-22.444-11.222-33.666-33.666-28.055-56.11 0-19.638 19.638-36.471 44.888-36.471zM586.345 561.622c-16.833-28.055-30.86-53.304-47.693-81.359-5.611-8.416-5.611-14.027 0-19.638 36.471-64.526 72.942-129.052 112.219-193.578 19.638-33.666 39.277-67.332 58.915-100.997 11.222-16.833 25.249-28.055 47.693-28.055 5.611 0 11.222 0 16.833 2.805 30.86 11.222 44.888 44.888 28.055 75.748-8.416 16.833-16.833 30.86-28.055 47.693-5.611 5.611-2.805 11.222 5.611 11.222s16.833 0 25.249 0c30.86 0 53.304 22.444 53.304 50.499s-22.444 50.499-53.304 50.499c-28.055 0-53.304 0-81.359 0-11.222 0-19.638 2.805-25.249 14.027-33.666 56.11-64.526 115.025-98.192 171.134-5.611 11.222-8.416 11.222-14.027 0zM252.493 233.381c-16.833 0-25.249-5.611-30.86-19.638 0-2.805-2.805-5.611-2.805-8.416-11.222-33.666 14.027-67.332 58.915-67.332 11.222 0 25.249 8.416 36.471 25.249 11.222 19.638 22.444 39.277 33.666 58.915 5.611 8.416 5.611 11.222-5.611 11.222-30.86 0-61.721 0-89.775 0z" />
<glyph unicode="&#xe90e;" glyph-name="bdv-icon-appstore-s" d="M1009.371 747.886c-7.314 43.886-21.943 80.457-47.543 109.714-43.886 54.857-102.4 84.114-171.886 84.114-190.171 0-384 0-566.857 0-109.714 0-201.143-80.457-219.429-190.171 0-10.971-3.657-25.6-3.657-32.914 0-54.857 0-109.714 0-168.229v-3.657c0-124.343 0-252.343 0-380.343 0-109.714 80.457-208.457 190.171-223.086v0c3.657 0 3.657 0 7.314 0h607.086c0 0 3.657 0 3.657 0 40.229 7.314 73.143 18.286 102.4 43.886 47.543 36.571 76.8 84.114 87.771 142.629v7.314c0 0 0 3.657 0 7.314v607.086c10.971-7.314 10.971-3.657 10.971-3.657zM62.171 543.086v3.657c0 54.857 0 109.714 0 168.229 0 7.314 0 18.286 0 25.6 10.971 80.457 80.457 142.629 160.914 142.629 179.2 0 373.029 0 566.857 0 51.2 0 95.086-21.943 128-65.829 18.286-21.943 29.257-47.543 32.914-80.457v-607.086c-7.314-43.886-29.257-80.457-65.829-106.057-21.943-14.629-47.543-25.6-76.8-32.914h-599.771c0 0-3.657 0-3.657 0-80.457 10.971-142.629 84.114-142.629 168.229 0 131.657 0 259.657 0 384zM219.429 272.457c62.171 0 120.686 0 182.857 0s124.343 0 186.514 0c10.971 0 10.971 0 7.314 10.971-14.629 29.257-32.914 54.857-47.543 84.114-3.657 7.314-7.314 7.314-14.629 7.314-29.257 0-58.514 0-84.114 0-10.971 0-10.971 0-7.314 10.971 18.286 29.257 32.914 58.514 51.2 87.771 36.571 62.171 73.143 124.343 109.714 190.171 7.314 10.971 10.971 21.943 10.971 36.571-3.657 21.943-18.286 40.229-40.229 43.886s-40.229-3.657-54.857-25.6c-7.314-10.971-7.314-10.971-14.629 0-10.971 14.629-21.943 21.943-40.229 25.6-40.229 3.657-65.829-36.571-47.543-73.143 10.971-18.286 21.943-36.571 32.914-54.857 3.657-7.314 3.657-10.971 0-18.286-40.229-69.486-84.114-142.629-124.343-212.114-3.657-7.314-7.314-7.314-14.629-7.314-29.257 0-58.514 0-87.771 0-7.314 0-14.629 0-21.943-3.657-21.943-10.971-32.914-32.914-29.257-54.857 3.657-32.914 21.943-47.543 47.543-47.543zM581.486 554.057c-14.629-25.6-29.257-54.857-47.543-80.457-3.657-7.314-3.657-10.971 0-18.286 36.571-62.171 73.143-124.343 109.714-186.514 18.286-32.914 36.571-65.829 54.857-98.743 10.971-18.286 25.6-29.257 43.886-29.257 7.314 0 10.971 0 18.286 3.657 29.257 10.971 43.886 43.886 25.6 73.143-7.314 14.629-18.286 29.257-25.6 43.886-3.657 7.314-3.657 10.971 3.657 10.971s18.286 0 25.6 0c29.257 0 51.2 21.943 54.857 51.2 0 29.257-21.943 51.2-51.2 51.2-25.6 0-51.2 0-80.457 0-10.971 0-18.286 3.657-25.6 14.629-32.914 54.857-65.829 113.371-95.086 168.229-3.657 7.314-3.657 7.314-10.971-3.657zM256 232.229c-14.629 0-25.6-3.657-29.257-18.286 0-3.657-3.657-3.657-3.657-7.314-10.971-32.914 10.971-65.829 54.857-65.829 10.971 0 25.6 10.971 36.571 25.6 10.971 18.286 21.943 36.571 32.914 58.514 3.657 7.314 3.657 10.971-7.314 10.971-29.257-3.657-58.514-3.657-84.114-3.657z" />
<glyph unicode="&#xe912;" glyph-name="bdv-icon-back-l" d="M639.486 735.871c-10.281 10.281-26.731 10.281-39.068 0l-269.365-269.365c-10.281-10.281-10.281-26.731 0-39.068l269.365-269.365c10.281-10.281 26.731-10.281 39.068 0 10.281 10.281 10.281 26.731 0 39.068l-250.859 250.859 250.859 250.859c10.281 10.281 10.281 26.731 0 37.012zM512 960c-283.759 0-512-230.297-512-512 0-271.422 211.791-495.55 479.1-512 16.45 0 28.787 12.337 28.787 26.731s-10.281 26.731-24.675 26.731c-240.578 14.394-429.751 213.847-429.751 458.538 0 252.916 205.622 458.538 458.538 458.538s458.538-205.622 458.538-458.538c0-117.205-45.237-224.129-117.205-306.378-10.281-10.281-8.225-26.731 2.056-37.012s28.787-10.281 39.068 2.056c80.193 90.474 129.542 209.735 129.542 341.333 0 281.703-228.241 512-512 512zM777.253 71.711c-16.45 0-30.843-14.394-30.843-30.843s14.394-30.843 30.843-30.843c16.45 0 30.843 14.394 30.843 30.843 0 18.506-12.337 30.843-30.843 30.843z" />
<glyph unicode="&#xe913;" glyph-name="bdv-icon-back-m" d="M644.843 741.362c-11.070 11.070-27.676 11.070-38.746 0l-265.686-265.686c-11.070-11.070-11.070-27.676 0-38.746l265.686-265.686c11.070-11.070 27.676-11.070 38.746 0s11.070 27.676 0 38.746l-246.314 246.314 246.314 246.314c11.070 11.070 11.070 27.676 0 38.746zM520.303 960c-279.524 0-506.465-226.941-506.465-506.465 0-268.454 207.568-487.092 473.254-503.697 16.605 0 27.676 11.070 27.676 27.676 0 13.838-11.070 24.908-24.908 27.676-235.243 13.838-423.438 210.335-423.438 451.114 0 249.081 202.032 453.881 451.114 453.881s451.114-202.032 451.114-453.881c0-116.238-44.281-221.405-116.238-301.665-8.303-11.070-8.303-27.676 0-35.978 11.070-11.070 27.676-11.070 38.746 2.768 80.259 88.562 127.308 207.568 127.308 337.643 5.535 276.757-218.638 500.93-498.162 500.93zM780.454 85.449c-16.605 0-30.443-13.838-30.443-30.443s13.838-30.443 30.443-30.443c16.605 0 30.443 13.838 30.443 30.443s-13.838 30.443-30.443 30.443z" />
<glyph unicode="&#xe914;" glyph-name="bdv-icon-back-s" d="M625.371 725.943c-10.971 10.971-25.6 10.971-36.571 0l-263.314-263.314c-10.971-10.971-10.971-25.6 0-36.571l263.314-263.314c10.971-10.971 25.6-10.971 36.571 0s10.971 25.6 0 36.571l-245.029 245.029 245.029 245.029c10.971 7.314 10.971 25.6 0 36.571zM501.029 941.714c-277.943 0-501.029-223.086-501.029-501.029 0-266.971 208.457-482.743 468.114-501.029 14.629 0 29.257 10.971 29.257 25.6s-10.971 25.6-25.6 25.6c-234.057 14.629-420.571 208.457-420.571 446.171 0 248.686 201.143 449.829 449.829 449.829s449.829-201.143 449.829-449.829c0-113.371-43.886-219.429-113.371-299.886-10.971-10.971-7.314-25.6 0-36.571 10.971-10.971 29.257-10.971 40.229 0 80.457 87.771 128 204.8 128 332.8-3.657 285.257-226.743 508.343-504.686 508.343zM760.686 74.971c-18.286 0-29.257-14.629-29.257-29.257 0-18.286 14.629-29.257 29.257-29.257s29.257 14.629 29.257 29.257c3.657 14.629-10.971 29.257-29.257 29.257z" />
<glyph unicode="&#xe915;" glyph-name="bdv-icon-bagbell-l" horiz-adv-x="1022" d="M366.008 232.096h100.755c0-22.618 16.45-39.068 39.068-39.068s39.068 18.506 39.068 39.068h100.755c16.45 0 30.843 14.394 30.843 32.9s-14.394 32.9-30.843 32.9h-236.466v108.98c0 53.462 43.181 98.699 96.643 98.699s96.643-45.237 96.643-98.699v-20.562c0-14.394 10.281-24.675 24.675-24.675s24.675 12.337 24.675 24.675v20.562c0 74.024-53.462 133.655-121.317 145.992v37.012c0 14.394-10.281 24.675-24.675 24.675s-24.675-10.281-24.675-24.675v-37.012c-69.912-12.337-121.317-71.968-121.317-145.992v-111.036c-14.394-4.112-24.675-16.45-24.675-30.843 0-18.506 14.394-32.9 30.843-32.9zM982.876 526.137c-18.506 0-32.9-14.394-32.9-32.9v-392.739c0-16.45-12.337-30.843-28.787-30.843h-94.586v682.667h94.586c16.45 0 28.787-12.337 28.787-30.843s14.394-32.9 32.9-32.9c18.506 0 32.9 14.394 32.9 32.9 0 53.462-43.181 96.643-94.586 96.643h-224.129v45.237c0 53.462-43.181 96.643-94.586 96.643h-189.173c-53.462 0-94.586-43.181-94.586-96.643v-45.237h-224.129c-53.462 0-94.586-43.181-94.586-96.643v-623.036c0-53.462 43.181-96.643 94.586-96.643h41.124v-32.9c0-18.506 14.394-32.9 32.9-32.9s32.9 14.394 32.9 32.9v32.9h618.924v-32.9c0-18.506 14.394-32.9 32.9-32.9s32.9 14.394 32.9 32.9v32.9h41.124c53.462 0 94.586 43.181 94.586 96.643v392.739c-6.169 18.506-20.562 34.956-39.068 34.956zM380.402 865.414c0 16.45 14.394 30.843 30.843 30.843h189.173c16.45 0 30.843-14.394 30.843-30.843v-45.237h-248.803v45.237zM59.631 100.498v623.036c0 16.45 14.394 30.843 30.843 30.843h94.586v-509.944c0-18.506 14.394-32.9 32.9-32.9s32.9 14.394 32.9 32.9v509.944h509.944v-682.667h-670.329c-16.45-2.056-30.843 12.337-30.843 28.787zM220.016 104.61c20.562 0 37.012 16.45 37.012 37.012s-16.45 37.012-37.012 37.012c-20.562 0-37.012-16.45-37.012-37.012s16.45-37.012 37.012-37.012zM982.876 641.285c-20.562 0-37.012-16.45-37.012-37.012s16.45-37.012 37.012-37.012c20.562 0 37.012 16.45 37.012 37.012s-16.45 37.012-37.012 37.012z" />
<glyph unicode="&#xe916;" glyph-name="bdv-icon-bagbell-m" d="M370.323 236.186h100.997c0-22.444 16.833-39.277 39.277-39.277s39.277 16.833 39.277 39.277h100.997c16.833 0 30.86 14.027 30.86 30.86s-14.027 33.666-30.86 33.666h-235.66v109.414c0 53.304 44.888 98.192 98.192 98.192s95.386-44.888 95.386-98.192v-19.638c0-14.027 11.222-25.249 25.249-25.249s25.249 11.222 25.249 25.249v19.638c0 72.942-53.304 134.663-120.636 145.885v36.471c0 14.027-11.222 25.249-25.249 25.249s-25.249-11.222-25.249-25.249v-36.471c-70.137-11.222-120.636-72.942-120.636-145.885v-109.414c-14.027-2.805-25.249-16.833-25.249-30.86-2.805-19.638 11.222-33.666 28.055-33.666zM987.529 527.956c-16.833 0-33.666-14.027-33.666-33.666v-392.767c0-16.833-14.027-30.86-30.86-30.86h-95.386v681.732h95.386c16.833 0 30.86-14.027 30.86-30.86 0-19.638 14.027-33.666 33.666-33.666s33.666 14.027 33.666 33.666c0 53.304-42.082 95.386-95.386 95.386h-224.438v47.693c0 53.304-42.082 95.386-95.386 95.386h-190.773c-53.304 0-95.386-42.082-95.386-95.386v-47.693h-224.438c-53.304 0-95.386-42.082-95.386-95.386v-622.816c0-53.304 42.082-95.386 95.386-95.386h39.277v-33.666c0-19.638 14.027-33.666 33.666-33.666 16.833 0 33.666 14.027 33.666 33.666v33.666h617.205v-33.666c0-19.638 14.027-33.666 33.666-33.666s33.666 14.027 33.666 33.666v33.666h39.277c53.304 0 95.386 42.082 95.386 95.386v392.767c0 22.444-14.027 36.471-33.666 36.471zM384.351 867.419c0 16.833 14.027 30.86 30.86 30.86h190.773c16.833 0 30.86-14.027 30.86-30.86v-47.693h-249.688v47.693zM64.526 101.523v622.816c0 16.833 14.027 30.86 30.86 30.86h95.386v-510.597c0-19.638 14.027-33.666 33.666-33.666s33.666 14.027 33.666 33.666v510.597h510.597v-681.732h-670.51c-19.638 0-33.666 14.027-33.666 28.055zM224.438 107.134c19.638 0 36.471 16.833 36.471 36.471s-16.833 36.471-36.471 36.471c-19.638 0-36.471-16.833-36.471-36.471s16.833-36.471 36.471-36.471zM987.529 645.786c-19.638 0-36.471-16.833-36.471-36.471s16.833-36.471 36.471-36.471c19.638 0 36.471 16.833 36.471 36.471s-16.833 36.471-36.471 36.471z" />
<glyph unicode="&#xe917;" glyph-name="bdv-icon-bagbell-s" horiz-adv-x="1028" d="M372.364 230.167h100.538c0-22.342 18.618-40.96 37.236-40.96s37.236 18.618 37.236 40.96h100.538c18.618 0 29.789 14.895 29.789 33.513s-14.895 33.513-29.789 33.513h-234.589v107.985c0 52.131 44.684 96.815 96.815 96.815s96.815-44.684 96.815-96.815v-18.618c0-14.895 11.171-26.065 26.065-26.065s26.065 11.171 26.065 26.065v18.618c0 74.473-52.131 134.051-122.88 145.222v37.236c0 14.895-11.171 26.065-26.065 26.065s-26.065-11.171-26.065-26.065v-37.236c-67.025-11.171-122.88-70.749-122.88-145.222v-111.709c-14.895-3.724-26.065-14.895-26.065-29.789 7.447-18.618 18.618-33.513 37.236-33.513zM986.764 524.335c-18.618 0-33.513-14.895-33.513-33.513v-390.982c0-14.895-11.171-29.789-29.789-29.789h-93.091v681.425h93.091c14.895 0 29.789-14.895 29.789-29.789 0-18.618 14.895-33.513 33.513-33.513s33.513 14.895 33.513 33.513c0 52.131-40.96 96.815-96.815 96.815h-223.418v44.684c0 52.131-40.96 96.815-93.091 96.815h-189.905c-52.131 0-96.815-44.684-96.815-96.815v-44.684h-223.418c-52.131 0-96.815-44.684-96.815-96.815v-621.847c0-52.131 40.96-96.815 96.815-96.815h40.96v-33.513c0-18.618 14.895-33.513 33.513-33.513s33.513 14.895 33.513 33.513v33.513h618.124v-33.513c0-18.618 14.895-33.513 33.513-33.513s33.513 14.895 33.513 33.513v33.513h40.96c52.131 0 96.815 44.684 96.815 96.815v390.982c-7.447 18.618-22.342 33.513-40.96 33.513zM387.258 859.462c0 14.895 14.895 29.789 29.789 29.789h189.905c14.895 0 29.789-14.895 29.789-29.789v-44.684h-249.484zM67.025 99.84v618.124c0 14.895 14.895 29.789 29.789 29.789h93.091v-506.415c0-18.618 14.895-33.513 33.513-33.513s33.513 14.895 33.513 33.513v506.415h510.138v-681.425h-666.531c-18.618 3.724-33.513 14.895-33.513 33.513zM227.142 103.564c18.618 0 37.236 14.895 37.236 37.236 0 18.618-14.895 37.236-37.236 37.236-18.618 0-37.236-14.895-37.236-37.236s18.618-37.236 37.236-37.236zM986.764 639.767c-18.618 0-37.236-14.895-37.236-37.236 0-18.618 14.895-37.236 37.236-37.236 18.618 0 37.236 14.895 37.236 37.236 0 18.618-14.895 37.236-37.236 37.236z" />
<glyph unicode="&#xe918;" glyph-name="bdv-icon-bank-l" d="M86.016 402.944c16.384 0 28.672 12.288 28.672 28.672s-12.288 28.672-28.672 28.672c-16.384 0-28.672-12.288-28.672-28.672s12.288-28.672 28.672-28.672zM997.376 83.456h-38.912v415.744h38.912c14.336 0 24.576 10.24 24.576 24.576s-10.24 24.576-24.576 24.576h-180.224v51.2c0 8.192-4.096 16.384-14.336 22.528l-268.288 137.216v83.968c0 12.288-10.24 24.576-24.576 24.576s-24.576-10.24-24.576-24.576v-83.968l-268.288-137.216c-8.192-4.096-12.288-12.288-12.288-22.528v-51.2h-180.224c-14.336 0-24.576-10.24-24.576-24.576s10.24-24.576 24.576-24.576h235.52v-280.576h-26.624c-14.336 0-24.576-10.24-24.576-24.576v-110.592h-94.208v262.144c0 14.336-10.24 24.576-24.576 24.576s-24.576-10.24-24.576-24.576v-262.144h-38.912c-14.336 0-24.576-10.24-24.576-24.576s10.24-24.576 24.576-24.576h485.376c14.336 0 24.576 10.24 24.576 24.576s-10.24 24.576-24.576 24.576h-251.904v86.016h503.808v-86.016h-47.104c-14.336 0-24.576-10.24-24.576-24.576s10.24-24.576 24.576-24.576h282.624c14.336 0 24.576 10.24 24.576 24.576-2.048 12.288-14.336 24.576-26.624 24.576zM256 583.168l256 131.072 256-131.072v-36.864h-514.048v36.864zM589.824 499.2v-280.576h-155.648v280.576zM638.976 499.2h59.392v-280.576h-59.392zM311.296 499.2h71.68v-280.576h-71.68zM788.48 216.576h-40.96v280.576h159.744v-415.744h-94.208v110.592c0 14.336-12.288 24.576-24.576 24.576zM614.4 87.552c-16.384 0-28.672-12.288-28.672-28.672s12.288-28.672 28.672-28.672c16.384 0 28.672 12.288 28.672 28.672 0 14.336-12.288 28.672-28.672 28.672z" />
<glyph unicode="&#xe919;" glyph-name="bdv-icon-bank-m" d="M88.562 403.719c16.605 0 27.676 13.838 27.676 27.676 0 16.605-13.838 27.676-27.676 27.676-16.605 0-27.676-13.838-27.676-27.676 0-16.605 11.070-27.676 27.676-27.676zM990.789 85.449h-38.746v412.368h38.746c13.838 0 24.908 11.070 24.908 24.908s-11.070 24.908-24.908 24.908h-177.124v49.816c0 8.303-5.535 16.605-13.838 22.141l-265.686 135.611v83.027c0 13.838-11.070 24.908-24.908 24.908s-24.908-11.070-24.908-24.908v-83.027l-265.686-135.611c-8.303-2.768-13.838-11.070-13.838-22.141v-49.816h-177.124c-13.838 0-24.908-11.070-24.908-24.908s11.070-24.908 24.908-24.908h232.476v-279.524h-27.676c-13.838 0-24.908-11.070-24.908-24.908v-110.703h-94.097v260.151c0 13.838-11.070 24.908-24.908 24.908s-24.908-11.070-24.908-24.908v-260.151h-38.746c-13.838 0-24.908-11.070-24.908-24.908s11.070-24.908 24.908-24.908h481.557c13.838 0 24.908 11.070 24.908 24.908s-11.070 24.908-24.908 24.908h-249.081v85.795h498.162v-85.795h-47.049c-13.838 0-24.908-11.070-24.908-24.908s11.070-24.908 24.908-24.908h279.524c13.838 0 24.908 11.070 24.908 24.908s-8.303 27.676-22.141 27.676zM257.384 580.843l254.616 130.076 254.616-130.076v-35.978h-509.232zM586.724 497.816v-279.524h-154.984v279.524zM636.541 497.816h58.119v-279.524h-58.119zM312.735 497.816h71.957v-279.524h-71.957zM783.222 218.292h-38.746v279.524h157.751v-412.368h-94.097v110.703c0 11.070-11.070 22.141-24.908 22.141zM611.632 90.984c-16.605 0-27.676-13.838-27.676-27.676 0-16.605 13.838-27.676 27.676-27.676 16.605 0 27.676 13.838 27.676 27.676s-11.070 27.676-27.676 27.676z" />
<glyph unicode="&#xe91a;" glyph-name="bdv-icon-bank-s" d="M91.429 396.8c14.629 0 29.257 10.971 29.257 29.257 0 14.629-10.971 29.257-29.257 29.257-14.629 0-29.257-14.629-29.257-29.257s10.971-29.257 29.257-29.257zM983.771 82.286h-40.229v409.6h40.229c14.629 0 25.6 10.971 25.6 25.6s-10.971 21.943-25.6 21.943h-175.543v51.2c0 7.314-3.657 18.286-10.971 21.943l-263.314 135.314v80.457c0 14.629-10.971 21.943-25.6 21.943s-25.6-10.971-25.6-21.943v-84.114l-263.314-135.314c-7.314-3.657-14.629-10.971-14.629-21.943v-51.2h-175.543c-14.629 0-25.6-10.971-25.6-21.943 0-14.629 10.971-25.6 25.6-25.6h230.4v-274.286h-25.6c-14.629 0-25.6-10.971-25.6-25.6v-109.714h-91.429v256c0 14.629-10.971 25.6-25.6 25.6s-25.6-10.971-25.6-25.6v-256h-40.229c-14.629 0-25.6-10.971-25.6-25.6s10.971-21.943 25.6-21.943h479.086c14.629 0 25.6 10.971 25.6 21.943 0 14.629-10.971 25.6-25.6 25.6h-248.686v84.114h493.714v-84.114h-47.543c-14.629 0-25.6-10.971-25.6-25.6s10.971-21.943 25.6-21.943h277.943c14.629 0 25.6 10.971 25.6 21.943 3.657 18.286-7.314 29.257-21.943 29.257zM256 576l252.343 128 252.343-128v-36.571h-504.686zM585.143 491.886v-274.286h-153.6v274.286zM632.686 491.886h58.514v-274.286h-58.514zM310.857 491.886h69.486v-274.286h-69.486zM778.971 217.6h-40.229v274.286h157.257v-409.6h-95.086v109.714c3.657 14.629-7.314 25.6-21.943 25.6zM610.743 89.6c-14.629 0-29.257-10.971-29.257-29.257 0-14.629 10.971-29.257 29.257-29.257 14.629 0 29.257 10.971 29.257 29.257-3.657 14.629-14.629 29.257-29.257 29.257z" />
<glyph unicode="&#xe91b;" glyph-name="bdv-icon-bell-l" horiz-adv-x="969" d="M857.78 262.285h-675.142v264.721c0 166.22 135.439 301.659 301.659 301.659s301.659-135.439 301.659-301.659v-53.355c0-14.365 12.313-24.625 24.625-24.625s24.625 10.261 24.625 24.625v53.355c0 184.689-143.647 336.545-326.285 350.91v57.459c0 14.365-12.313 24.625-24.625 24.625-14.365 0-24.625-12.313-24.625-24.625v-57.459c-182.637-12.313-326.285-164.168-326.285-350.91v-264.721h-22.573c-61.563 0-110.814-49.251-110.814-110.814s49.251-110.814 110.814-110.814h248.305c12.313-59.511 63.615-104.657 127.23-104.657s114.918 45.146 127.23 104.657h244.2c61.563 0 110.814 49.251 110.814 110.814s-49.251 110.814-110.814 110.814zM484.297-10.645c-34.886 0-63.615 22.573-73.876 53.355h147.752c-10.261-30.782-38.99-53.355-73.876-53.355zM857.78 94.012h-749.018c-32.834 0-59.511 26.677-59.511 59.511s26.677 59.511 59.511 59.511h749.018c32.834 0 59.511-26.677 59.511-59.511s-26.677-59.511-59.511-59.511zM810.581 325.9c18.469 0 34.886 14.365 34.886 34.886 0 18.469-14.365 34.886-34.886 34.886s-34.886-16.417-34.886-34.886c0-20.521 16.417-34.886 34.886-34.886z" />
<glyph unicode="&#xe91c;" glyph-name="bdv-icon-bell-m" d="M904.533 254.578h-685.511v267.378c0 167.822 136.533 304.356 304.356 304.356s304.356-136.533 304.356-304.356v-54.044c0-14.222 11.378-25.6 25.6-25.6s25.6 11.378 25.6 25.6v54.044c0 187.733-145.067 341.333-332.8 355.556v56.889c0 14.222-11.378 25.6-25.6 25.6s-25.6-11.378-25.6-25.6v-56.889c-184.889-14.222-332.8-167.822-332.8-355.556v-267.378h-22.756c-62.578 0-110.933-51.2-110.933-110.933 0-62.578 51.2-110.933 110.933-110.933h250.311c11.378-59.733 65.422-105.244 128-105.244s116.622 45.511 128 105.244h250.311c62.578 0 110.933 51.2 110.933 110.933 8.533 62.578-42.667 110.933-102.4 110.933zM523.378-21.333c-34.133 0-65.422 22.756-76.8 54.044h150.756c-11.378-34.133-39.822-54.044-73.956-54.044zM904.533 83.911h-762.311c-34.133 0-59.733 25.6-59.733 59.733s28.444 59.733 59.733 59.733h762.311c34.133 0 59.733-25.6 59.733-59.733s-28.444-59.733-59.733-59.733zM853.333 320c19.911 0 34.133 14.222 34.133 34.133s-14.222 34.133-34.133 34.133c-19.911 0-34.133-17.067-34.133-34.133 0-19.911 17.067-34.133 34.133-34.133z" />
<glyph unicode="&#xe91d;" glyph-name="bdv-icon-bell-s" d="M874.057 276.114h-661.943v259.657c0 160.914 131.657 296.229 296.229 296.229 160.914 0 296.229-131.657 296.229-296.229v-51.2c0-14.629 10.971-25.6 25.6-25.6s25.6 10.971 25.6 25.6v51.2c0 182.857-142.629 329.143-318.171 343.771v54.857c0 14.629-10.971 25.6-25.6 25.6s-25.6-10.971-25.6-25.6v-54.857c-179.2-14.629-318.171-160.914-318.171-343.771v-259.657h-21.943c-58.514 0-109.714-47.543-109.714-109.714 0-58.514 47.543-109.714 109.714-109.714h241.371c10.971-58.514 62.171-102.4 124.343-102.4s113.371 43.886 124.343 102.4h241.371c58.514 0 109.714 47.543 109.714 109.714-7.314 58.514-54.857 109.714-113.371 109.714zM504.686 5.486c-32.914 0-62.171 21.943-73.143 51.2h146.286c-10.971-29.257-36.571-51.2-73.143-51.2zM874.057 107.886h-735.086c-32.914 0-58.514 25.6-58.514 58.514s25.6 58.514 58.514 58.514h735.086c32.914 0 58.514-25.6 58.514-58.514s-25.6-58.514-58.514-58.514zM826.514 338.286c18.286 0 32.914 14.629 32.914 32.914s-14.629 32.914-32.914 32.914c-18.286 0-32.914-14.629-32.914-32.914s14.629-32.914 32.914-32.914z" />
<glyph unicode="&#xe91e;" glyph-name="bdv-icon-briefcase-l" horiz-adv-x="968" d="M286.39 819.895c0 78.294 63.871 140.105 140.105 140.105h115.38c78.294 0 140.105-63.871 140.105-140.105v-30.905h146.286c78.294 0 140.105-63.871 140.105-140.105v-572.781c0-78.294-63.871-140.105-140.105-140.105h-688.161c-78.294 0-140.105 63.871-140.105 140.105v572.781c0 78.294 63.871 140.105 140.105 140.105h146.286zM140.105 735.421c-49.449 0-88.596-39.147-88.596-88.596v-228.7c0-49.449 39.147-88.596 88.596-88.596h317.296v88.596c0 14.423 12.362 26.785 26.785 26.785s26.785-12.362 26.785-26.785v-88.596h317.296c49.449 0 88.596 39.147 88.596 88.596v228.7c0 49.449-39.147 88.596-88.596 88.596zM630.471 788.99h-290.511v30.905c0 49.449 39.147 88.596 88.596 88.596h115.38c49.449 0 88.596-39.147 88.596-88.596v-30.905zM916.861 308.926c-24.724-18.543-55.63-30.905-88.596-30.905h-317.296v-88.596c0-14.423-12.362-26.785-26.785-26.785s-26.785 12.362-26.785 26.785v88.596h-317.296c-32.966 0-63.871 12.362-88.596 30.905v-232.821c0-49.449 39.147-88.596 88.596-88.596h688.161c49.449 0 88.596 39.147 88.596 88.596z" />
<glyph unicode="&#xe91f;" glyph-name="bdv-icon-briefcase-m" d="M309.968 821.622c0 77.492 60.886 138.378 138.378 138.378h113.47c77.492 0 138.378-60.886 138.378-138.378v-30.443h143.914c77.492 0 138.378-60.886 138.378-138.378v-564.584c0-77.492-60.886-138.378-138.378-138.378h-678.054c-77.492 0-138.378 60.886-138.378 138.378v564.584c0 77.492 60.886 138.378 138.378 138.378h143.914zM168.822 738.595c-47.049 0-85.795-38.746-85.795-85.795v-226.941c0-47.049 38.746-85.795 85.795-85.795h312.735v85.795c0 13.838 11.070 24.908 24.908 24.908s24.908-11.070 24.908-24.908v-85.795h312.735c47.049 0 85.795 38.746 85.795 85.795v226.941c0 47.049-38.746 85.795-85.795 85.795zM650.378 791.178h-287.827v30.443c0 47.049 38.746 85.795 85.795 85.795h113.47c47.049 0 85.795-38.746 85.795-85.795v-30.443zM929.903 317.924c-24.908-19.373-55.351-30.443-85.795-30.443h-312.735v-85.795c0-13.838-11.070-24.908-24.908-24.908s-24.908 11.070-24.908 24.908v85.795h-312.735c-33.211 0-63.654 11.070-85.795 30.443v-229.708c0-47.049 38.746-85.795 85.795-85.795h678.054c47.049 0 85.795 38.746 85.795 85.795v229.708z" />
<glyph unicode="&#xe920;" glyph-name="bdv-icon-briefcase-s" d="M314.514 821.029c0 76.8 62.171 138.971 138.971 138.971h113.371c76.8 0 138.971-62.171 138.971-138.971v-29.257h142.629c76.8 0 138.971-62.171 138.971-138.971v-559.543c0-76.8-62.171-138.971-138.971-138.971h-672.914c-76.8 0-138.971 62.171-138.971 138.971v559.543c0 76.8 62.171 138.971 138.971 138.971h142.629v29.257zM175.543 740.571c-47.543 0-87.771-40.229-87.771-87.771v-223.086c0-47.543 40.229-87.771 87.771-87.771h310.857v87.771c0 14.629 10.971 25.6 25.6 25.6s25.6-10.971 25.6-25.6v-87.771h310.857c47.543 0 87.771 40.229 87.771 87.771v223.086c0 47.543-40.229 87.771-87.771 87.771zM650.971 791.771h-285.257v29.257c0 47.543 40.229 87.771 87.771 87.771h113.371c47.543 0 87.771-40.229 87.771-87.771v-29.257zM932.571 323.657c-21.943-18.286-54.857-29.257-87.771-29.257h-310.857v-87.771c0-14.629-10.971-25.6-25.6-25.6s-25.6 10.971-25.6 25.6v87.771h-310.857c-32.914 0-62.171 10.971-87.771 29.257v-226.743c0-47.543 40.229-87.771 87.771-87.771h672.914c47.543 0 87.771 40.229 87.771 87.771z" />
<glyph unicode="&#xe921;" glyph-name="bdv-icon-bs-l" d="M514.056 906.538c-252.916 0-458.538-205.622-458.538-458.538s205.622-458.538 458.538-458.538c252.916 0 458.538 205.622 458.538 458.538s-205.622 458.538-458.538 458.538zM0 448c0 283.759 230.297 512 512 512 283.759 0 512-230.297 512-512s-230.297-512-512-512c-281.703 0-512 228.241-512 512zM220.016 236.209c-10.281 0-16.45 2.056-22.618 8.225-6.169 4.112-8.225 12.337-8.225 20.562v310.49c0 10.281 2.056 16.45 8.225 22.618 6.169 4.112 12.337 8.225 22.618 8.225h129.542c26.731 0 49.349-4.112 67.855-10.281 18.506-8.225 32.9-18.506 43.181-32.9s14.394-30.843 14.394-51.406c0-22.618-6.169-41.124-20.562-57.574s-32.9-24.675-55.518-30.843v8.225c26.731-4.112 47.293-12.337 63.743-28.787 14.394-16.45 22.618-37.012 22.618-61.687 0-32.9-12.337-57.574-32.9-76.080-22.618-18.506-53.462-26.731-94.586-26.731h-137.767zM244.691 443.888h96.643c26.731 0 45.237 4.112 59.631 14.394s20.562 24.675 20.562 45.237c0 18.506-6.169 34.956-20.562 45.237s-32.9 14.394-59.631 14.394h-96.643zM244.691 279.39h104.867c26.731 0 47.293 4.112 59.631 14.394s20.562 26.731 20.562 47.293c0 20.562-6.169 37.012-20.562 47.293s-32.9 14.394-59.631 14.394h-104.867zM690.892 232.096c-16.45 0-32.9 2.056-49.349 4.112s-30.843 6.169-45.237 12.337c-14.394 4.112-26.731 12.337-39.068 18.506-6.169 4.112-8.225 8.225-10.281 12.337s-2.056 10.281-2.056 14.394c0 4.112 2.056 8.225 6.169 12.337s8.225 6.169 12.337 6.169c4.112 0 10.281 0 16.45-4.112 16.45-10.281 32.9-16.45 51.406-22.618 18.506-4.112 39.068-6.169 59.631-6.169 30.843 0 53.462 6.169 67.855 16.45s22.618 24.675 22.618 41.124c0 14.394-6.169 24.675-16.45 32.9s-28.787 14.394-53.462 20.562l-57.574 12.337c-34.956 6.169-59.631 18.506-78.137 34.956-16.45 16.45-24.675 37.012-24.675 63.743 0 16.45 4.112 30.843 10.281 45.237s16.45 24.675 28.787 34.956c12.337 10.281 28.787 16.45 45.237 22.618 16.45 4.112 37.012 8.225 57.574 8.225 22.618 0 43.181-2.056 63.743-8.225s37.012-14.394 53.462-24.675c4.112-4.112 8.225-6.169 10.281-12.337 2.056-4.112 2.056-10.281 2.056-14.394s-2.056-8.225-6.169-12.337c-4.112-2.056-8.225-4.112-12.337-6.169-4.112 0-10.281 2.056-16.45 4.112-14.394 8.225-28.787 16.45-43.181 20.562s-30.843 6.169-49.349 6.169c-18.506 0-32.9-2.056-47.293-8.225-12.337-6.169-22.618-12.337-30.843-22.618-6.169-8.225-10.281-20.562-10.281-32.9 0-14.394 4.112-26.731 14.394-34.956s26.731-16.45 49.349-20.562l57.574-12.337c37.012-8.225 63.743-18.506 82.249-34.956s26.731-34.956 26.731-61.687c0-16.45-4.112-30.843-10.281-43.181s-16.45-24.675-28.787-32.9c-12.337-10.281-28.787-16.45-45.237-22.618-20.562-4.112-39.068-6.169-61.687-6.169z" />
<glyph unicode="&#xe922;" glyph-name="bdv-icon-bs-m" d="M512 904.044c-251.803 0-456.044-204.24-456.044-456.044s204.24-456.044 456.044-456.044c251.803 0 456.044 204.24 456.044 456.044s-204.24 456.044-456.044 456.044zM0 448c0 282.579 229.421 512 512 512s512-229.421 512-512c0-282.579-229.421-512-512-512s-512 229.421-512 512zM218.23 238.164c-11.191 0-16.787 2.798-22.383 8.393s-8.393 11.191-8.393 22.383v307.76c0 8.393 2.798 16.787 8.393 22.383s13.989 8.393 22.383 8.393h128.699c25.18 0 50.361-2.798 67.148-11.191 19.585-8.393 33.574-19.585 41.967-33.574s13.989-30.776 13.989-50.361c0-22.383-5.596-41.967-19.585-55.956-13.989-16.787-33.574-25.18-55.956-30.776v8.393c27.978-2.798 47.563-13.989 64.35-27.978 13.989-16.787 22.383-36.372 22.383-61.552 0-33.574-11.191-58.754-33.574-75.541s-53.158-25.18-95.126-25.18h-134.295zM243.41 445.202h97.924c25.18 0 44.765 5.596 58.754 13.989 13.989 11.191 19.585 25.18 19.585 44.765s-5.596 33.574-19.585 44.765c-13.989 11.191-33.574 13.989-58.754 13.989h-97.924zM243.41 280.131h106.317c27.978 0 47.563 5.596 61.552 16.787s19.585 25.18 19.585 47.563c0 22.383-5.596 36.372-19.585 44.765-13.989 11.191-33.574 13.989-61.552 13.989h-106.317zM688.262 232.568c-16.787 0-33.574 0-50.361 2.798s-30.776 5.596-44.765 11.191c-13.989 5.596-27.978 11.191-39.169 19.585-5.596 2.798-8.393 8.393-11.191 13.989s-2.798 8.393-2.798 13.989c0 5.596 2.798 8.393 5.596 11.191s8.393 5.596 11.191 5.596c5.596 0 11.191 0 16.787-5.596 16.787-11.191 33.574-16.787 50.361-22.383s39.169-8.393 58.754-8.393c30.776 0 53.158 5.596 67.148 16.787s22.383 25.18 22.383 41.967c0 13.989-5.596 25.18-16.787 33.574s-27.978 13.989-53.158 19.585l-58.754 11.191c-33.574 5.596-58.754 19.585-78.339 33.574-16.787 16.787-25.18 36.372-25.18 64.35 0 16.787 2.798 30.776 11.191 44.765s16.787 25.18 30.776 33.574c13.989 11.191 27.978 16.787 44.765 22.383s36.372 8.393 58.754 8.393c22.383 0 44.765-2.798 64.35-8.393s36.372-13.989 53.158-25.18c5.596-2.798 8.393-5.596 8.393-11.191 2.798-5.596 2.798-8.393 0-13.989 0-5.596-2.798-8.393-5.596-11.191s-8.393-5.596-11.191-5.596c-5.596 0-11.191 0-16.787 5.596-13.989 8.393-27.978 16.787-41.967 19.585s-30.776 5.596-47.563 5.596c-16.787 0-33.574-2.798-47.563-8.393s-22.383-11.191-30.776-22.383c-8.393-8.393-11.191-19.585-11.191-33.574s5.596-25.18 13.989-33.574c8.393-8.393 25.18-16.787 50.361-19.585l58.754-11.191c36.372-8.393 64.35-19.585 81.137-33.574 16.787-16.787 27.978-36.372 27.978-61.552 0-16.787-2.798-30.776-11.191-44.765-5.596-13.989-16.787-25.18-30.776-33.574s-27.978-16.787-44.765-22.383c-13.989 0-33.574-2.798-55.956-2.798z" />
<glyph unicode="&#xe923;" glyph-name="bdv-icon-bs-s" d="M512 903.942c-254.131 0-459.679-205.547-459.679-459.679s205.547-459.679 459.679-459.679c254.131 0 459.679 205.547 459.679 459.679s-205.547 459.679-459.679 459.679zM0 448c0 284.029 227.971 512 512 512s512-227.971 512-512c0-284.029-227.971-512-512-512s-512 227.971-512 512zM220.496 234.978c-11.212 0-18.686 3.737-22.423 7.474s-7.474 11.212-7.474 22.423v310.19c0 11.212 3.737 14.949 7.474 22.423 3.737 3.737 11.212 7.474 22.423 7.474h130.803c26.161 0 48.584-3.737 67.27-11.212s33.635-18.686 44.847-33.635c11.212-14.949 14.949-29.898 14.949-52.321s-7.474-41.109-22.423-56.058c-14.949-14.949-33.635-26.161-56.058-29.898v7.474c26.161-3.737 48.584-14.949 63.533-29.898s22.423-37.372 22.423-63.533c0-33.635-11.212-56.058-33.635-74.745s-56.058-26.161-93.431-26.161zM242.92 444.263h97.168c26.161 0 44.847 3.737 59.796 14.949s18.686 26.161 18.686 44.847c0 18.686-7.474 33.635-18.686 44.847-14.949 11.212-33.635 14.949-59.796 14.949h-97.168zM242.92 276.088h104.642c26.161 0 48.584 3.737 59.796 14.949 14.949 11.212 18.686 26.161 18.686 44.847 0 22.423-7.474 37.372-18.686 44.847s-33.635 14.949-59.796 14.949h-104.642zM691.387 231.241c-14.949 0-33.635 0-48.584 3.737s-29.898 7.474-44.847 11.212c-14.949 3.737-26.161 11.212-37.372 18.686-3.737 3.737-7.474 7.474-11.212 14.949-3.737 3.737-3.737 11.212 0 14.949 0 3.737 3.737 7.474 7.474 11.212s7.474 7.474 11.212 7.474c3.737 0 11.212 0 14.949-3.737 14.949-11.212 33.635-18.686 52.321-22.423s37.372-7.474 59.796-7.474c29.898 0 52.321 3.737 67.27 14.949s22.423 26.161 22.423 41.109c0 14.949-3.737 26.161-14.949 33.635s-29.898 14.949-52.321 18.686l-59.796 11.212c-33.635 7.474-59.796 18.686-78.482 33.635s-26.161 37.372-26.161 63.533c0 14.949 3.737 29.898 11.212 44.847s18.686 26.161 29.898 33.635c11.212 11.212 26.161 18.686 44.847 22.423s37.372 7.474 59.796 7.474c22.423 0 44.847-3.737 63.533-7.474s37.372-14.949 52.321-26.161c3.737-3.737 7.474-7.474 11.212-11.212 0-3.737 3.737-7.474 0-14.949 0-3.737-3.737-7.474-7.474-11.212s-7.474-3.737-11.212-3.737c-3.737 0-11.212 0-18.686 3.737-14.949 7.474-29.898 14.949-44.847 18.686s-29.898 7.474-48.584 7.474c-18.686 0-33.635-3.737-44.847-7.474-14.949-3.737-22.423-11.212-29.898-22.423-7.474-7.474-11.212-18.686-11.212-33.635s3.737-26.161 14.949-33.635c11.212-7.474 26.161-14.949 48.584-18.686l56.058-11.212c37.372-7.474 63.533-18.686 82.219-33.635s26.161-37.372 26.161-59.796c0-14.949-3.737-29.898-11.212-44.847s-18.686-22.423-29.898-33.635c-11.212-11.212-29.898-14.949-44.847-22.423-18.686-3.737-37.372-7.474-59.796-7.474z" />
<glyph unicode="&#xe924;" glyph-name="bdv-icon-call-l" horiz-adv-x="979" d="M218.398 770.447c-14.423 6.181-30.905 0-39.147-14.423-20.604-47.388-30.905-96.837-30.905-148.346v-78.294h-39.147c-59.751 0-109.199-49.449-109.199-111.26v-84.475c0-61.811 49.449-111.26 109.199-111.26h67.992c16.483 0 28.845 12.362 28.845 28.845v354.382c0 43.268 8.241 84.475 26.785 123.622 6.181 16.483 0 35.026-14.423 41.207zM57.69 333.65v84.475c0 28.845 22.664 51.509 51.509 51.509h39.147v-189.553h-39.147c-28.845 2.060-51.509 26.785-51.509 53.569zM947.767 364.555c-16.483 0-28.845-12.362-28.845-28.845 0-28.845-22.664-51.509-51.509-51.509h-39.147v189.553h39.147c16.483 0 28.845 12.362 28.845 28.845s-12.362 28.845-28.845 28.845h-39.147v78.294c0 193.674-152.467 350.262-339.96 350.262-84.475 0-164.829-30.905-226.64-88.596-12.362-10.302-12.362-28.845-2.060-41.207s28.845-12.362 41.207-2.060c51.509 47.388 119.501 74.173 187.493 74.173 156.588 0 282.27-129.803 282.27-290.511v-434.736c0-61.811-49.449-113.32-111.26-113.32h-76.233c0 0-2.060 0-2.060 0-12.362 39.147-47.388 70.052-90.656 70.052-53.569 0-96.837-45.328-96.837-98.897s43.268-98.897 96.837-98.897c43.268 0 78.294 28.845 90.656 70.052 0 0 2.060 0 2.060 0h76.233c92.716 0 168.95 78.294 168.95 173.070v49.449h39.147c59.751 0 109.199 49.449 109.199 111.26 0 12.362-12.362 24.724-28.845 24.724zM488.306-8.37c-20.604 0-39.147 18.543-39.147 39.147s16.483 39.147 39.147 39.147c20.604 0 39.147-18.543 39.147-39.147s-18.543-39.147-39.147-39.147zM391.469 401.642c0 12.362-10.302 22.664-22.664 22.664h-49.449c-12.362 0-22.664-10.302-22.664-22.664v-51.509c0-12.362 10.302-22.664 22.664-22.664h49.449c12.362 0 22.664 10.302 22.664 22.664zM513.030 327.469c12.362 0 22.664 10.302 22.664 22.664v51.509c0 12.362-10.302 22.664-22.664 22.664h-49.449c-12.362 0-22.664-10.302-22.664-22.664v-51.509c0-12.362 10.302-22.664 22.664-22.664zM655.195 327.469c12.362 0 22.664 10.302 22.664 22.664v51.509c0 12.362-10.302 22.664-22.664 22.664h-49.449c-12.362 0-22.664-10.302-22.664-22.664v-51.509c0-12.362 10.302-22.664 22.664-22.664zM947.767 395.461c16.483 0 30.905 14.423 30.905 30.905s-14.423 30.905-30.905 30.905c-16.483 0-30.905-14.423-30.905-30.905 0-18.543 14.423-30.905 30.905-30.905z" />
<glyph unicode="&#xe925;" glyph-name="bdv-icon-call-m" d="M243.546 780.108c-13.838 8.303-30.443 0-38.746-13.838-22.141-47.049-30.443-94.097-30.443-143.914v-77.492h-38.746c-58.119 0-107.935-49.816-107.935-110.703v-83.027c0-60.886 47.049-110.703 107.935-110.703h66.422c16.605 0 27.676 13.838 27.676 30.443v351.481c0 41.514 8.303 83.027 24.908 121.773 8.303 11.070 2.768 27.676-11.070 35.978zM85.795 351.135v83.027c0 27.676 22.141 52.584 49.816 52.584h38.746v-185.427h-38.746c-27.676-2.768-49.816 19.373-49.816 49.816zM960.346 378.811c-16.605 0-27.676-13.838-27.676-30.443 0-27.676-22.141-52.584-49.816-52.584h-38.746v185.427h38.746c16.605 0 27.676 13.838 27.676 30.443s-13.838 27.676-27.676 27.676h-38.746v77.492c0 190.962-149.449 343.178-334.876 343.178-83.027 0-163.286-30.443-224.173-88.562-11.070-11.070-13.838-30.443-2.768-41.514s27.676-13.838 41.514-2.768c49.816 47.049 116.238 71.957 185.427 71.957 152.216 0 276.757-127.308 276.757-285.059v-428.973c0-60.886-49.816-110.703-107.935-110.703h-74.724c0 0-2.768 0-2.768 0-11.070 38.746-47.049 69.189-91.33 69.189-52.584 0-94.097-44.281-94.097-96.865s41.514-96.865 94.097-96.865c41.514 0 77.492 27.676 91.33 69.189 0 0 2.768 0 2.768 0h74.724c91.33 0 166.054 77.492 166.054 171.589v47.049h38.746c58.119 0 107.935 49.816 107.935 110.703 0 16.605-13.838 30.443-30.443 30.443zM509.232 10.724c-22.141 0-38.746 16.605-38.746 38.746s16.605 38.746 38.746 38.746c22.141 0 38.746-16.605 38.746-38.746-2.768-19.373-19.373-38.746-38.746-38.746zM415.135 417.557c0 11.070-11.070 22.141-22.141 22.141h-49.816c-11.070 0-22.141-11.070-22.141-22.141v-49.816c0-11.070 11.070-22.141 22.141-22.141h49.816c11.070 0 22.141 11.070 22.141 22.141zM534.141 342.832c11.070 0 22.141 11.070 22.141 22.141v49.816c0 11.070-11.070 22.141-22.141 22.141h-49.816c-11.070 0-22.141-11.070-22.141-22.141v-49.816c0-11.070 11.070-22.141 22.141-22.141zM675.286 342.832c11.070 0 22.141 11.070 22.141 22.141v49.816c0 11.070-11.070 22.141-22.141 22.141h-49.816c-11.070 0-22.141-11.070-22.141-22.141v-49.816c0-11.070 11.070-22.141 22.141-22.141zM960.346 409.254c16.605 0 30.443 13.838 30.443 30.443s-13.838 30.443-30.443 30.443c-16.605 0-30.443-13.838-30.443-30.443s13.838-30.443 30.443-30.443z" />
<glyph unicode="&#xe926;" glyph-name="bdv-icon-call-s" d="M238.933 774.163c-15.17 7.585-30.341 0-37.926-15.17-22.756-45.511-34.133-98.607-34.133-147.911v-79.644h-37.926c-60.681 0-109.985-49.304-109.985-113.778v-83.437c0-60.681 49.304-113.778 109.985-113.778h68.267c15.17 0 30.341 15.17 30.341 30.341v360.296c0 41.719 7.585 83.437 26.548 125.156 7.585 11.378 0 30.341-15.17 37.926zM75.852 330.43v83.437c0 30.341 22.756 53.096 53.096 53.096h37.926v-189.63h-37.926c-30.341 0-53.096 26.548-53.096 53.096zM978.489 360.77c-15.17 0-30.341-15.17-30.341-30.341 0-30.341-22.756-53.096-53.096-53.096h-37.926v189.63h37.926c15.17 0 30.341 15.17 30.341 30.341s-11.378 30.341-30.341 30.341h-37.926v79.644c0 193.422-155.496 352.711-345.126 352.711-83.437 0-166.874-30.341-231.348-91.022-11.378-11.378-11.378-30.341-3.793-41.719 11.378-11.378 30.341-15.17 41.719-3.793 53.096 49.304 121.363 75.852 189.63 75.852 159.289 0 284.444-132.741 284.444-292.030v-439.941c0-64.474-49.304-113.778-113.778-113.778h-79.644c0 0 0 0-3.793 0-11.378 41.719-49.304 72.059-91.022 72.059-53.096 0-98.607-45.511-98.607-98.607s45.511-98.607 98.607-98.607c45.511 0 79.644 30.341 91.022 72.059 0 0 0 0 3.793 0h79.644c94.815 0 170.667 79.644 170.667 174.459v49.304h37.926c60.681 0 109.985 49.304 109.985 113.778 11.378 11.378-3.793 22.756-18.963 22.756zM512-14.696c-22.756 0-37.926 18.963-37.926 41.719s18.963 41.719 37.926 41.719c22.756 0 37.926-18.963 37.926-41.719 3.793-26.548-15.17-41.719-37.926-41.719zM417.185 398.696c0 11.378-11.378 22.756-22.756 22.756h-49.304c-11.378 0-22.756-11.378-22.756-22.756v-53.096c0-11.378 11.378-22.756 22.756-22.756h49.304c11.378 0 22.756 11.378 22.756 22.756zM538.548 326.637c11.378 0 22.756 11.378 22.756 22.756v53.096c0 11.378-11.378 22.756-22.756 22.756h-49.304c-11.378 0-22.756-11.378-22.756-22.756v-53.096c0-11.378 11.378-22.756 22.756-22.756zM682.667 326.637c11.378 0 22.756 11.378 22.756 22.756v53.096c0 11.378-11.378 22.756-22.756 22.756h-49.304c-11.378 0-22.756-11.378-22.756-22.756v-53.096c0-11.378 11.378-22.756 22.756-22.756zM978.489 391.111c15.17 0 30.341 15.17 30.341 30.341 0 18.963-15.17 30.341-30.341 30.341s-30.341-15.17-30.341-30.341c0-15.17 15.17-30.341 30.341-30.341z" />
<glyph unicode="&#xe927;" glyph-name="bdv-icon-cardelete-l" d="M389.12 205.312h-231.424c-12.288 0-24.576 10.24-24.576 24.576s10.24 24.576 24.576 24.576h231.424c12.288 0 24.576-10.24 24.576-24.576-2.048-14.336-12.288-24.576-24.576-24.576zM477.184 252.416c-12.288-12.288-12.288-34.816 0-47.104s32.768-12.288 45.056 0c12.288 12.288 12.288 34.816 0 47.104-12.288 14.336-32.768 14.336-45.056 0zM354.304 770.56c12.288 12.288 12.288 34.816 0 47.104s-32.768 12.288-45.056 0c-12.288-12.288-12.288-34.816 0-47.104s32.768-12.288 45.056 0zM303.104 465.408h-114.688c-30.72 0-55.296 26.624-55.296 59.392v65.536c0 32.768 24.576 57.344 55.296 57.344h114.688c30.72 0 55.296-26.624 55.296-57.344v-65.536c0-32.768-24.576-59.392-55.296-59.392zM188.416 598.528c-4.096 0-8.192-4.096-8.192-8.192v-65.536c0-4.096 4.096-8.192 8.192-8.192h114.688c4.096 0 8.192 4.096 8.192 8.192v65.536c0 4.096-4.096 8.192-8.192 8.192zM907.264 168.448c0-30.72-24.576-57.344-55.296-57.344h-749.568c-30.72 0-55.296 24.576-55.296 57.344v542.72c0 32.768 24.576 57.344 55.296 57.344h102.4c12.288 0 24.576 10.24 24.576 24.576s-10.24 24.576-24.576 24.576h-102.4c-57.344 0-102.4-47.104-102.4-106.496v-542.72c0-59.392 45.056-106.496 102.4-106.496h749.568c57.344 0 102.4 47.104 102.4 106.496v14.336c0 14.336-10.24 24.576-24.576 24.576s-24.576-10.24-24.576-24.576v-14.336zM954.368 713.216c0 59.392-45.056 106.496-102.4 106.496h-391.168c-12.288 0-24.576-10.24-24.576-24.576s10.24-24.576 24.576-24.576h391.168c30.72 0 55.296-24.576 55.296-57.344v-12.288c0-14.336 10.24-24.576 24.576-24.576s24.576 10.24 24.576 24.576v12.288zM778.24 698.88c-65.536 0-124.928-26.624-172.032-73.728-4.096-4.096-6.144-10.24-6.144-16.384s2.048-12.288 6.144-16.384c8.192-8.192 22.528-8.192 30.72 0 36.864 38.912 88.064 61.44 141.312 61.44 110.592 0 198.656-94.208 198.656-208.896s-90.112-208.896-198.656-208.896c-110.592 0-198.656 94.208-198.656 208.896 0 12.288-10.24 22.528-20.48 22.528s-20.48-10.24-20.48-22.528c0-139.264 108.544-253.952 241.664-253.952s241.664 114.688 241.664 253.952c-2.048 139.264-110.592 253.952-243.712 253.952zM876.544 549.376c-10.24 10.24-26.624 10.24-36.864 0l-63.488-65.536-63.488 65.536c-4.096 4.096-12.288 8.192-18.432 8.192s-12.288-2.048-18.432-8.192c-4.096-4.096-8.192-12.288-8.192-18.432s2.048-14.336 8.192-18.432l63.488-65.536-63.488-65.536c-4.096-4.096-6.144-12.288-6.144-18.432s2.048-14.336 6.144-18.432c4.096-4.096 10.24-8.192 18.432-8.192 6.144 0 12.288 2.048 18.432 8.192l63.488 65.536 63.488-65.536c10.24-10.24 26.624-10.24 36.864 0 4.096 4.096 6.144 12.288 6.144 18.432 0 8.192-2.048 14.336-6.144 18.432l-63.488 65.536 63.488 65.536c4.096 4.096 8.192 12.288 8.192 18.432s-2.048 12.288-8.192 18.432z" />
<glyph unicode="&#xe928;" glyph-name="bdv-icon-cardelete-m" d="M384.692 202.378h-229.708c-13.838 0-22.141 11.070-22.141 24.908s11.070 24.908 22.141 24.908h229.708c13.838 0 22.141-11.070 22.141-24.908s-8.303-24.908-22.141-24.908zM473.254 249.427c-11.070-13.838-11.070-33.211 0-47.049s33.211-13.838 44.281 0c11.070 13.838 11.070 33.211 0 47.049s-33.211 13.838-44.281 0zM351.481 764.195c11.070 13.838 11.070 33.211 0 47.049s-33.211 13.838-44.281 0c-11.070-13.838-11.070-33.211 0-47.049 13.838-13.838 33.211-13.838 44.281 0zM301.665 459.762h-113.47c-30.443 0-55.351 24.908-55.351 58.119v63.654c0 33.211 24.908 58.119 55.351 58.119h113.47c30.443 0 55.351-24.908 55.351-58.119v-63.654c0-33.211-24.908-58.119-55.351-58.119zM188.195 592.605c-5.535 0-8.303-2.768-8.303-8.303v-63.654c0-5.535 2.768-8.303 8.303-8.303h113.47c5.535 0 8.303 2.768 8.303 8.303v63.654c0 5.535-2.768 8.303-8.303 8.303zM899.459 166.4c0-30.443-24.908-58.119-55.351-58.119h-741.708c-30.443 0-55.351 24.908-55.351 58.119v536.908c0 30.443 24.908 55.351 55.351 55.351h99.632c13.838 0 22.141 11.070 22.141 24.908s-11.070 24.908-22.141 24.908h-99.632c-55.351 0-102.4-47.049-102.4-105.168v-536.908c0-58.119 44.281-105.168 102.4-105.168h741.708c55.351 0 102.4 47.049 102.4 105.168v13.838c0 13.838-11.070 24.908-22.141 24.908s-22.141-11.070-22.141-24.908v-13.838zM943.741 706.076c0 58.119-44.281 105.168-102.4 105.168h-387.459c-13.838 0-22.141-11.070-22.141-24.908s11.070-24.908 22.141-24.908h387.459c30.443 0 55.351-24.908 55.351-55.351v-11.070c0-13.838 11.070-24.908 22.141-24.908s22.141 11.070 22.141 24.908v11.070zM769.384 692.238c-63.654 0-124.541-24.908-168.822-74.724-2.768-2.768-5.535-8.303-5.535-16.605 0-5.535 2.768-11.070 5.535-16.605 8.303-8.303 22.141-8.303 30.443 0 35.978 38.746 85.795 60.886 138.378 60.886 107.935 0 196.497-91.33 196.497-204.8s-88.562-207.568-196.497-207.568c-107.935 0-196.497 91.33-196.497 207.568 0 11.070-8.303 22.141-22.141 22.141-11.070 0-22.141-11.070-22.141-22.141 0-138.378 107.935-251.849 240.778-251.849s240.778 113.47 240.778 251.849c0 138.378-107.935 251.849-240.778 251.849zM869.016 542.789c-8.303 11.070-24.908 11.070-35.978 0l-63.654-66.422-63.654 66.422c-5.535 5.535-11.070 8.303-16.605 8.303s-13.838-2.768-16.605-8.303c-5.535-5.535-8.303-11.070-8.303-19.373s2.768-13.838 8.303-19.373l63.654-66.422-63.654-66.422c-5.535-5.535-8.303-11.070-8.303-19.373s2.768-13.838 8.303-19.373c5.535-5.535 11.070-8.303 16.605-8.303s13.838 2.768 16.605 8.303l63.654 66.422 63.654-66.422c8.303-11.070 24.908-11.070 35.978 0 5.535 5.535 8.303 11.070 8.303 19.373s-2.768 13.838-8.303 19.373l-63.654 66.422 63.654 66.422c5.535 5.535 8.303 11.070 8.303 19.373s-2.768 13.838-8.303 19.373z" />
<glyph unicode="&#xe929;" glyph-name="bdv-icon-cardelete-s" d="M394.43 211.911h-235.141c-15.17 0-22.756 11.378-22.756 26.548s11.378 26.548 22.756 26.548h235.141c15.17 0 22.756-11.378 22.756-26.548s-11.378-26.548-22.756-26.548zM485.452 261.215c-11.378-15.17-11.378-34.133 0-49.304 11.378-11.378 34.133-11.378 45.511 0s11.378 34.133 0 49.304c-11.378 11.378-34.133 11.378-45.511 0zM360.296 788.385c11.378 15.17 11.378 34.133 0 49.304-11.378 11.378-34.133 11.378-45.511 0s-11.378-34.133 0-49.304c11.378-15.17 34.133-15.17 45.511 0zM307.2 473.6h-117.57c-30.341 0-56.889 26.548-56.889 60.681v68.267c0 34.133 26.548 60.681 56.889 60.681h117.57c30.341 0 56.889-26.548 56.889-60.681v-68.267c0-34.133-26.548-60.681-56.889-60.681zM189.63 610.133c-3.793 0-7.585-3.793-7.585-7.585v-68.267c0-3.793 3.793-7.585 7.585-7.585h117.57c3.793 0 7.585 3.793 7.585 7.585v68.267c0 3.793-3.793 7.585-7.585 7.585zM921.6 173.985c0-34.133-26.548-56.889-56.889-56.889h-762.311c-30.341 0-56.889 26.548-56.889 56.889v553.719c0 30.341 26.548 56.889 56.889 56.889h102.4c15.17 0 22.756 11.378 22.756 26.548s-11.378 26.548-22.756 26.548h-102.4c-56.889 0-102.4-49.304-102.4-109.985v-553.719c0-60.681 45.511-109.985 102.4-109.985h766.104c56.889 0 102.4 49.304 102.4 109.985v15.17c0 15.17-11.378 26.548-22.756 26.548-15.17 0-22.756-11.378-22.756-26.548v-15.17zM970.904 727.704c0 60.681-45.511 109.985-102.4 109.985h-398.222c-15.17 0-22.756-11.378-22.756-26.548s11.378-26.548 22.756-26.548h398.222c30.341 0 56.889-26.548 56.889-56.889v-11.378c0-15.17 11.378-26.548 22.756-26.548 15.17 0 22.756 11.378 22.756 26.548zM788.859 712.533c-64.474 0-128.948-26.548-174.459-75.852-3.793-3.793-7.585-11.378-7.585-15.17 0-7.585 3.793-11.378 7.585-15.17 7.585-7.585 22.756-7.585 30.341 0 37.926 37.926 91.022 60.681 144.119 60.681 113.778 0 204.8-94.815 204.8-212.385s-91.022-212.385-204.8-212.385c-113.778 0-204.8 94.815-204.8 212.385 0 11.378-11.378 22.756-22.756 22.756s-22.756-11.378-22.756-22.756c0-140.326 109.985-257.896 246.519-257.896s246.519 113.778 246.519 257.896c7.585 144.119-106.193 257.896-242.726 257.896zM891.259 560.83c-11.378 11.378-26.548 11.378-37.926 0l-64.474-68.267-64.474 68.267c-3.793 3.793-11.378 7.585-18.963 7.585s-11.378-3.793-18.963-7.585c-3.793-3.793-7.585-11.378-7.585-18.963s3.793-15.17 7.585-18.963l64.474-68.267-64.474-68.267c-3.793-3.793-7.585-11.378-7.585-18.963s3.793-15.17 7.585-18.963c3.793-3.793 11.378-7.585 18.963-7.585s15.17 3.793 18.963 7.585l64.474 68.267 64.474-68.267c11.378-11.378 26.548-11.378 37.926 0 3.793 3.793 7.585 11.378 7.585 18.963s-3.793 15.17-7.585 18.963l-64.474 68.267 64.474 68.267c3.793 3.793 7.585 11.378 7.585 18.963s-3.793 15.17-7.585 18.963z" />
<glyph unicode="&#xe92a;" glyph-name="bdv-icon-card-l" d="M911.36 61.952h-802.816c-59.392 0-108.544 47.104-108.544 106.496v542.72c0 59.392 49.152 106.496 108.544 106.496h108.544c14.336 0 24.576-10.24 24.576-24.576s-12.288-24.576-24.576-24.576h-108.544c-32.768 0-59.392-26.624-59.392-57.344v-542.72c0-30.72 26.624-57.344 59.392-57.344h802.816c32.768 0 59.392 26.624 59.392 57.344v542.72c0 30.72-26.624 57.344-59.392 57.344h-417.792c-14.336 0-24.576 10.24-24.576 24.576s12.288 24.576 24.576 24.576h417.792c59.392 0 108.544-47.104 108.544-106.496v-542.72c0-59.392-49.152-106.496-108.544-106.496zM526.336 205.312h-342.016c-14.336 0-24.576 10.24-24.576 24.576s12.288 24.576 24.576 24.576h344.064c14.336 0 24.576-10.24 24.576-24.576s-12.288-24.576-26.624-24.576zM622.592 252.416c-14.336-12.288-14.336-34.816 0-47.104s34.816-12.288 49.152 0c14.336 12.288 14.336 34.816 0 47.104-14.336 14.336-36.864 14.336-49.152 0zM380.928 770.56c14.336 12.288 14.336 34.816 0 47.104s-34.816 12.288-49.152 0c-14.336-12.288-14.336-34.816 0-47.104s34.816-12.288 49.152 0zM323.584 465.408h-120.832c-32.768 0-59.392 26.624-59.392 59.392v65.536c0 32.768 26.624 59.392 59.392 59.392h120.832c32.768 0 59.392-26.624 59.392-59.392v-65.536c2.048-34.816-24.576-59.392-59.392-59.392zM202.752 596.48c-4.096 0-8.192-4.096-8.192-8.192v-65.536c0-4.096 4.096-8.192 8.192-8.192h120.832c4.096 0 8.192 4.096 8.192 8.192v65.536c0 4.096-4.096 8.192-8.192 8.192z" />
<glyph unicode="&#xe92b;" glyph-name="bdv-icon-card-m" d="M902.227 61.232h-794.292c-60.886 0-107.935 47.049-107.935 105.168v536.908c0 58.119 49.816 105.168 107.935 105.168h107.935c13.838 0 24.908-11.070 24.908-24.908s-11.070-24.908-24.908-24.908h-107.935c-33.211 0-58.119-24.908-58.119-55.351v-536.908c0-30.443 24.908-58.119 58.119-58.119h794.292c33.211 0 58.119 24.908 58.119 58.119v536.908c0 30.443-24.908 55.351-58.119 55.351h-415.135c-13.838 0-24.908 11.070-24.908 24.908s11.070 24.908 24.908 24.908h415.135c60.886 0 107.935-47.049 107.935-105.168v-536.908c0-58.119-47.049-105.168-107.935-105.168zM523.070 202.378h-340.411c-13.838 0-24.908 11.070-24.908 24.908s11.070 24.908 24.908 24.908h340.411c13.838 0 24.908-11.070 24.908-24.908s-11.070-24.908-24.908-24.908zM617.168 249.427c-13.838-13.838-13.838-33.211 0-47.049s35.978-13.838 47.049 0c13.838 13.838 13.838 33.211 0 47.049s-35.978 13.838-47.049 0zM376.389 764.195c13.838 13.838 13.838 33.211 0 47.049s-35.978 13.838-47.049 0c-13.838-13.838-13.838-33.211 0-47.049s33.211-13.838 47.049 0zM321.038 459.762h-121.773c-33.211 0-58.119 24.908-58.119 58.119v63.654c0 33.211 27.676 58.119 58.119 58.119h121.773c33.211 0 58.119-24.908 58.119-58.119v-63.654c2.768-30.443-24.908-58.119-58.119-58.119zM202.032 592.605c-5.535 0-8.303-2.768-8.303-8.303v-63.654c0-5.535 2.768-8.303 8.303-8.303h121.773c5.535 0 8.303 2.768 8.303 8.303v63.654c0 5.535-2.768 8.303-8.303 8.303z" />
<glyph unicode="&#xe92c;" glyph-name="bdv-icon-cardproceed-l" d="M392.533 272c-12.8-12.8-12.8-36.267 0-49.067s34.133-12.8 49.067 0c12.8 12.8 12.8 34.133 0 49.067-12.8 12.8-34.133 12.8-49.067 0zM296.533 220.8h-130.133c-14.933 0-25.6 10.667-25.6 25.6s10.667 25.6 25.6 25.6h130.133c14.933 0 25.6-10.667 25.6-25.6 0-12.8-10.667-25.6-25.6-25.6zM1017.6 743.467c0 59.733-49.067 108.8-108.8 108.8h-418.133c-14.933 0-25.6-10.667-25.6-25.6s10.667-25.6 25.6-25.6h418.133c32 0 57.6-25.6 57.6-59.733v-192c0-14.933 10.667-25.6 25.6-25.6s25.6 10.667 25.6 25.6zM108.8 124.8c-32 0-57.6 25.6-57.6 59.733v558.933c0 32 25.6 59.733 57.6 59.733h108.8c14.933 0 25.6 10.667 25.6 25.6s-10.667 25.6-25.6 25.6h-108.8c-59.733 0-108.8-49.067-108.8-108.8v-558.933c0-59.733 49.067-108.8 108.8-108.8h416c14.933 0 25.6 10.667 25.6 25.6s-10.667 25.6-25.6 25.6zM379.733 805.333c12.8 12.8 12.8 34.133 0 49.067-12.8 12.8-34.133 12.8-49.067 0-12.8-12.8-12.8-34.133 0-49.067s36.267-14.933 49.067 0zM324.267 489.6h-121.6c-32 0-59.733 27.733-59.733 59.733v68.267c0 34.133 27.733 59.733 59.733 59.733h121.6c32 0 59.733-27.733 59.733-59.733v-68.267c0-32-27.733-59.733-59.733-59.733zM202.667 626.133c-4.267 0-8.533-4.267-8.533-8.533v-68.267c0-4.267 4.267-8.533 8.533-8.533h121.6c4.267 0 8.533 4.267 8.533 8.533v68.267c0 4.267-4.267 8.533-8.533 8.533zM520.533 216.533h247.467l-36.267-36.267c-10.667-10.667-10.667-27.733 0-38.4 4.267-4.267 12.8-8.533 19.2-8.533s12.8 2.133 19.2 8.533l81.067 81.067c4.267 4.267 8.533 12.8 8.533 19.2s-2.133 14.933-8.533 19.2l-81.067 83.2c-10.667 10.667-27.733 10.667-38.4 0s-10.667-27.733 0-38.4l36.267-36.267h-247.467c-14.933 0-27.733-12.8-27.733-27.733 0-12.8 12.8-25.6 27.733-25.6zM695.467 378.667c29.867 23.467 64 34.133 102.4 34.133 91.733 0 168.533-76.8 168.533-168.533 0-93.867-74.667-168.533-168.533-168.533-36.267 0-72.533 12.8-102.4 34.133-12.8 8.533-29.867 6.4-38.4-4.267-8.533-12.8-6.4-29.867 4.267-38.4 38.4-29.867 85.333-44.8 134.4-44.8 121.6 0 221.867 100.267 221.867 224s-100.267 224-221.867 224c-49.067 0-96-14.933-134.4-46.933-12.8-8.533-14.933-25.6-4.267-38.4 8.533-12.8 25.6-14.933 38.4-6.4z" />
<glyph unicode="&#xe92d;" glyph-name="bdv-icon-cardproceed-m" d="M392.046 276.114c-14.629-14.629-14.629-35.109 0-49.737s35.109-14.629 49.737 0c14.629 14.629 14.629 35.109 0 49.737-14.629 11.703-35.109 11.703-49.737 0zM295.497 226.377h-128.731c-14.629 0-26.331 11.703-26.331 26.331s11.703 26.331 26.331 26.331h128.731c14.629 0 26.331-11.703 26.331-26.331s-11.703-26.331-26.331-26.331zM1021.074 750.080c0 61.44-49.737 111.177-108.251 111.177h-418.377c-14.629 0-26.331-11.703-26.331-26.331s11.703-26.331 26.331-26.331h418.377c32.183 0 58.514-26.331 58.514-58.514v-193.097c0-14.629 11.703-26.331 26.331-26.331s26.331 11.703 26.331 26.331v193.097zM108.251 129.829c-32.183 0-58.514 26.331-58.514 58.514v561.737c0 32.183 26.331 58.514 58.514 58.514h108.251c14.629 0 26.331 11.703 26.331 26.331s-11.703 26.331-26.331 26.331h-108.251c-61.44 0-108.251-49.737-108.251-111.177v-561.737c0-61.44 49.737-111.177 108.251-111.177h418.377c14.629 0 26.331 11.703 26.331 26.331s-11.703 26.331-26.331 26.331zM380.343 811.52c14.629 14.629 14.629 35.109 0 49.737s-35.109 14.629-49.737 0c-14.629-14.629-14.629-35.109 0-49.737s35.109-14.629 49.737 0zM321.829 495.543h-122.88c-32.183 0-61.44 26.331-61.44 61.44v67.291c0 32.183 26.331 61.44 61.44 61.44h122.88c32.183 0 58.514-26.331 58.514-61.44v-67.291c2.926-35.109-23.406-61.44-58.514-61.44zM201.874 633.051c-5.851 0-8.777-2.926-8.777-8.777v-67.291c0-5.851 2.926-8.777 8.777-8.777h122.88c5.851 0 8.777 2.926 8.777 8.777v67.291c0 5.851-2.926 8.777-8.777 8.777zM520.777 220.526h248.686l-35.109-35.109c-11.703-11.703-11.703-29.257 0-38.034 5.851-5.851 11.703-8.777 20.48-8.777 5.851 0 14.629 2.926 20.48 8.777l81.92 81.92c5.851 5.851 8.777 11.703 8.777 20.48 0 5.851-2.926 14.629-8.777 20.48l-81.92 81.92c-11.703 11.703-29.257 11.703-38.034 0s-11.703-29.257 0-38.034l35.109-35.109h-248.686c-14.629 0-26.331-11.703-26.331-26.331-2.926-20.48 8.777-32.183 23.406-32.183zM696.32 384.366c29.257 23.406 64.366 35.109 102.4 35.109 93.623 0 169.691-76.069 169.691-169.691s-76.069-169.691-169.691-169.691c-38.034 0-73.143 11.703-102.4 35.109-11.703 8.777-29.257 5.851-38.034-5.851s-5.851-29.257 5.851-38.034c38.034-29.257 84.846-46.811 134.583-46.811 122.88 0 222.354 99.474 222.354 225.28s-99.474 225.28-222.354 225.28c-49.737 0-96.549-14.629-134.583-46.811-11.703-8.777-14.629-26.331-5.851-38.034 8.777-14.629 26.331-14.629 38.034-5.851z" />
<glyph unicode="&#xe92e;" glyph-name="bdv-icon-cardproceed-s" d="M397.785 277.662c-11.815-11.815-11.815-35.446 0-47.262s35.446-11.815 47.262 0c11.815 11.815 11.815 35.446 0 47.262-11.815 15.754-31.508 15.754-47.262 0zM303.262 226.462h-129.969c-15.754 0-27.569 11.815-27.569 27.569s11.815 27.569 27.569 27.569h129.969c15.754 0 27.569-11.815 27.569-27.569-3.938-15.754-15.754-27.569-27.569-27.569zM1035.815 758.154c0 63.015-51.2 110.277-110.277 110.277h-425.354c-15.754 0-27.569-11.815-27.569-27.569s11.815-27.569 27.569-27.569h425.354c31.508 0 59.077-27.569 59.077-59.077v-196.923c0-15.754 11.815-27.569 27.569-27.569s27.569 11.815 27.569 27.569v200.862zM110.277 131.938c-31.508 0-59.077 27.569-59.077 59.077v567.138c0 31.508 27.569 59.077 59.077 59.077h110.277c15.754 0 27.569 11.815 27.569 27.569s-11.815 27.569-27.569 27.569h-110.277c-63.015 0-110.277-51.2-110.277-110.277v-567.138c0-63.015 51.2-110.277 110.277-110.277h425.354c15.754 0 27.569 11.815 27.569 23.631 0 15.754-11.815 27.569-27.569 27.569h-425.354zM385.969 821.169c11.815 11.815 11.815 35.446 0 51.2-11.815 11.815-35.446 11.815-47.262 0s-11.815-35.446 0-51.2c11.815-15.754 31.508-15.754 47.262 0zM326.892 502.154h-122.092c-31.508 0-59.077 27.569-59.077 63.015v66.954c0 35.446 27.569 59.077 59.077 59.077h122.092c31.508 0 59.077-27.569 59.077-59.077v-66.954c3.938-35.446-23.631-63.015-59.077-63.015zM204.8 640c-3.938 0-7.877-3.938-7.877-7.877v-66.954c0-3.938 3.938-7.877 7.877-7.877h122.092c3.938 0 7.877 3.938 7.877 7.877v66.954c0 3.938-3.938 7.877-7.877 7.877zM527.754 222.523h252.062l-35.446-35.446c-11.815-11.815-11.815-27.569 0-39.385 3.938-3.938 11.815-7.877 19.692-7.877s15.754 3.938 19.692 7.877l82.708 82.708c3.938 3.938 7.877 11.815 7.877 19.692s-3.938 15.754-7.877 19.692l-82.708 82.708c-11.815 11.815-27.569 11.815-39.385 0s-11.815-27.569 0-39.385l35.446-35.446h-252.062c-15.754 0-27.569-11.815-27.569-27.569 0-11.815 11.815-27.569 27.569-27.569zM704.985 387.938c31.508 23.631 66.954 35.446 102.4 35.446 94.523 0 169.354-78.769 169.354-173.292s-74.831-173.292-169.354-173.292c-39.385 0-74.831 11.815-102.4 35.446-11.815 7.877-27.569 7.877-39.385-3.938-7.877-11.815-7.877-31.508 3.938-39.385 39.385-31.508 86.646-47.262 137.846-47.262 126.031 0 224.492 102.4 224.492 228.431s-102.4 228.431-224.492 228.431c-51.2 0-98.462-15.754-137.846-47.262-11.815-7.877-15.754-27.569-3.938-39.385s27.569-11.815 39.385-3.938z" />
<glyph unicode="&#xe92f;" glyph-name="bdv-icon-cardrev2-l" d="M0 660.992c0 73.728 59.392 135.168 135.168 135.168h751.616c73.728 0 135.168-59.392 135.168-135.168v-430.080c0-73.728-59.392-135.168-135.168-135.168h-751.616c-73.728 0-135.168 59.392-135.168 135.168zM135.168 742.912c-45.056 0-79.872-36.864-79.872-79.872v-79.872h913.408v79.872c0 45.056-36.864 79.872-79.872 79.872zM966.656 527.872h-913.408v-294.912c0-45.056 36.864-79.872 79.872-79.872h751.616c45.056 0 79.872 36.864 79.872 79.872v294.912zM161.792 286.208c0 14.336 12.288 26.624 26.624 26.624h215.040c14.336 0 26.624-12.288 26.624-26.624s-12.288-26.624-26.624-26.624h-215.040c-14.336 0-26.624 12.288-26.624 26.624z" />
<glyph unicode="&#xe930;" glyph-name="bdv-icon-cardrev2-m" d="M0 661.103c0 74.724 60.886 132.843 132.843 132.843h744.476c74.724 0 132.843-60.886 132.843-132.843v-426.205c0-74.724-60.886-132.843-132.843-132.843h-744.476c-74.724 0-132.843 60.886-132.843 132.843zM132.843 738.595c-44.281 0-80.259-35.978-80.259-80.259v-80.259h904.995v80.259c0 44.281-35.978 80.259-80.259 80.259zM957.578 528.259h-904.995v-293.362c0-44.281 35.978-80.259 80.259-80.259h744.476c44.281 0 80.259 35.978 80.259 80.259zM160.519 287.481c0 13.838 11.070 27.676 27.676 27.676h213.103c13.838 0 27.676-11.070 27.676-27.676s-11.070-27.676-27.676-27.676h-213.103c-16.605 2.768-27.676 13.838-27.676 27.676z" />
<glyph unicode="&#xe931;" glyph-name="bdv-icon-cardrev2-s" d="M0 671.763c0 75.852 60.681 136.533 136.533 136.533h766.104c75.852 0 136.533-60.681 136.533-136.533v-436.148c0-75.852-60.681-136.533-136.533-136.533h-766.104c-75.852 0-136.533 60.681-136.533 136.533zM136.533 755.2c-45.511 0-83.437-37.926-83.437-83.437v-83.437h929.185v83.437c0 45.511-37.926 83.437-83.437 83.437zM986.074 535.23h-929.185v-299.615c0-45.511 37.926-83.437 83.437-83.437h766.104c45.511 0 83.437 37.926 83.437 83.437v299.615zM163.081 288.711c0 15.17 11.378 26.548 26.548 26.548h219.97c15.17 0 26.548-11.378 26.548-26.548s-11.378-26.548-26.548-26.548h-216.178c-15.17 0-30.341 11.378-30.341 26.548z" />
<glyph unicode="&#xe932;" glyph-name="bdv-icon-cardrev-l" d="M167.936 248.832c-14.336-12.288-14.336-34.816 0-49.152s34.816-14.336 49.152 0c14.336 12.288 14.336 34.816 0 49.152-14.336 12.288-34.816 12.288-49.152 0zM909.312 828.416h-417.792c-14.336 0-24.576-12.288-24.576-24.576 0-14.336 12.288-24.576 24.576-24.576h417.792c32.768 0 59.392-26.624 59.392-59.392v-135.168h-919.552v135.168c0 32.768 26.624 59.392 59.392 59.392h108.544c14.336 0 24.576 12.288 24.576 24.576 0 14.336-12.288 24.576-24.576 24.576h-108.544c-59.392 0-108.544-49.152-108.544-108.544v-555.008c0-59.392 49.152-108.544 108.544-108.544h800.768c59.392 0 108.544 49.152 108.544 108.544v555.008c2.048 59.392-47.104 108.544-108.544 108.544zM909.312 103.424h-802.816c-32.768 0-59.392 26.624-59.392 59.392v370.688h919.552v-370.688c2.048-32.768-24.576-59.392-57.344-59.392zM378.88 777.216c14.336 12.288 14.336 34.816 0 49.152s-34.816 14.336-49.152 0c-14.336-12.288-14.336-34.816 0-49.152 14.336-12.288 34.816-12.288 49.152 0z" />
<glyph unicode="&#xe933;" glyph-name="bdv-icon-cardrev-m" d="M902.227 827.849h-415.135c-13.838 0-24.908-11.070-24.908-24.908s11.070-24.908 24.908-24.908h415.135c33.211 0 58.119-27.676 58.119-58.119v-132.843h-910.53v132.843c0 33.211 24.908 58.119 58.119 58.119h107.935c13.838 0 24.908 11.070 24.908 24.908s-11.070 24.908-24.908 24.908h-107.935c-60.886 0-107.935-49.816-107.935-107.935v-550.746c0-58.119 49.816-107.935 107.935-107.935h794.292c60.886 0 107.935 49.816 107.935 107.935v550.746c2.768 58.119-47.049 107.935-107.935 107.935zM902.227 111.049h-794.292c-33.211 0-58.119 24.908-58.119 58.119v365.319h910.53v-365.319c0-33.211-24.908-58.119-58.119-58.119zM168.822 254.962c-13.838-13.838-13.838-33.211 0-47.049s35.978-13.838 47.049 0c11.070 13.838 13.838 33.211 0 47.049s-33.211 13.838-47.049 0zM376.389 778.032c13.838 13.838 13.838 33.211 0 47.049s-33.211 13.838-47.049 0c-13.838-13.838-13.838-33.211 0-47.049s35.978-13.838 47.049 0z" />
<glyph unicode="&#xe934;" glyph-name="bdv-icon-cardrev-s" d="M925.393 834.844h-424.77c-15.17 0-26.548-11.378-26.548-26.548s11.378-26.548 26.548-26.548h424.77c34.133 0 60.681-26.548 60.681-60.681v-136.533h-936.77v136.533c0 34.133 26.548 60.681 60.681 60.681h109.985c15.17 0 26.548 11.378 26.548 26.548s-11.378 26.548-26.548 26.548h-109.985c-60.681 0-109.985-49.304-109.985-109.985v-565.096c0-60.681 49.304-109.985 109.985-109.985h819.2c60.681 0 109.985 49.304 109.985 109.985v565.096c-3.793 60.681-53.096 109.985-113.778 109.985zM925.393 99.081h-819.2c-34.133 0-60.681 26.548-60.681 60.681v375.467h940.563v-375.467c0-34.133-26.548-60.681-60.681-60.681zM170.667 246.993c-15.17-15.17-15.17-34.133 0-49.304s34.133-15.17 49.304 0c15.17 15.17 15.17 34.133 0 49.304-15.17 11.378-37.926 11.378-49.304 0zM383.052 785.541c15.17 15.17 15.17 34.133 0 49.304s-34.133 15.17-49.304 0c-15.17-15.17-15.17-34.133 0-49.304s37.926-15.17 49.304 0z" />
<glyph unicode="&#xe935;" glyph-name="bdv-icon-card-s" d="M929.185 67.793h-819.2c-60.681 0-109.985 49.304-109.985 109.985v553.719c0 60.681 49.304 109.985 109.985 109.985h109.985c15.17 0 26.548-11.378 26.548-26.548s-11.378-26.548-26.548-26.548h-109.985c-34.133 0-60.681-26.548-60.681-56.889v-553.719c0-30.341 26.548-56.889 60.681-56.889h819.2c34.133 0 60.681 26.548 60.681 56.889v553.719c0 30.341-26.548 56.889-60.681 56.889h-424.77c-15.17 0-26.548 11.378-26.548 26.548s11.378 26.548 26.548 26.548h424.77c60.681 0 109.985-49.304 109.985-109.985v-553.719c0-60.681-49.304-109.985-109.985-109.985zM538.548 211.911h-348.919c-15.17 0-26.548 11.378-26.548 26.548s11.378 26.548 26.548 26.548h348.919c15.17 0 26.548-11.378 26.548-26.548-3.793-15.17-15.17-26.548-26.548-26.548zM633.363 261.215c-15.17-11.378-15.17-34.133 0-49.304 15.17-11.378 34.133-11.378 49.304 0 15.17 15.17 15.17 34.133 0 49.304-11.378 15.17-34.133 15.17-49.304 0zM386.844 788.385c15.17 11.378 15.17 34.133 0 49.304-15.17 11.378-34.133 11.378-49.304 0-15.17-15.17-15.17-34.133 0-49.304 15.17-11.378 37.926-11.378 49.304 0zM329.956 477.393h-125.156c-34.133 0-60.681 26.548-60.681 60.681v68.267c0 34.133 26.548 60.681 60.681 60.681h125.156c34.133 0 60.681-26.548 60.681-60.681v-68.267c0-34.133-26.548-60.681-60.681-60.681zM208.593 613.926c-3.793 0-7.585-3.793-7.585-7.585v-68.267c0-3.793 3.793-7.585 7.585-7.585h125.156c3.793 0 7.585 3.793 7.585 7.585v68.267c0 3.793-3.793 7.585-7.585 7.585z" />
</font>
</defs>
</svg>
